<?xml version="1.0" encoding="utf-8"?>
<!-- Generator: Adobe Illustrator 28.2.0, SVG Export Plug-In . SVG Version: 6.00 Build 0)  -->
<svg version="1.1" id="Layer_1" xmlns="http://www.w3.org/2000/svg" xmlns:xlink="http://www.w3.org/1999/xlink" x="0px" y="0px"
	 viewBox="0 0 313 263.7" style="enable-background:new 0 0 313 263.7;" xml:space="preserve">
<style type="text/css">
	.st0{fill:#FFFFFF;}
	.st1{font-family:'InterTight-SemiBold';}
	.st2{font-size:191px;}
	.st3{letter-spacing:-5;}
</style>
<g>
	<path class="st0" d="M229.5,118.5c-3.6-2.7-8.1-4.1-13.4-4.1c-5.4,0-9.9,1.4-13.6,4.3c-3.7,2.9-6.4,6.8-8.3,11.8
		s-2.8,10.8-2.8,17.3c0,6.5,0.9,12.2,2.8,17.3c1.9,5.1,4.6,9.1,8.3,12c3.6,2.9,8.2,4.4,13.6,4.4c5.2,0,9.7-1.4,13.3-4.2
		s6.4-6.8,8.3-11.8c1.9-5.1,2.9-11,2.9-17.7c0-6.8-0.9-12.7-2.8-17.7C235.9,125.1,233.1,121.3,229.5,118.5z"/>
	<polygon class="st0" points="104.1,89.4 85.4,145.4 124.1,145.4 105.3,89.4 	"/>
	<path class="st0" d="M260,0H53C23.7,0,0,23.7,0,53v157.7c0,29.3,23.7,53,53,53h207c29.3,0,53-23.7,53-53V53C313,23.7,289.3,0,260,0
		z M142.4,199.8l-11.5-34.3H78.7l-11.5,34.3h-27l49.1-139h31l49,139H142.4z M264.6,199.8h-24v-16.5h-1.5c-1.3,2.6-3.1,5.2-5.5,8.1
		c-2.4,2.8-5.5,5.3-9.4,7.3c-3.9,2-8.9,3-14.9,3c-8.1,0-15.5-2.1-22-6.3c-6.5-4.2-11.6-10.3-15.3-18.3s-5.6-17.8-5.6-29.2
		c0-11.6,1.9-21.4,5.7-29.4c3.8-8,9-14,15.4-18.1s13.7-6.2,21.7-6.2c6.2,0,11.2,1,15.1,3.1c3.9,2.1,7,4.5,9.4,7.4
		c2.3,2.9,4.1,5.6,5.4,8.1h1V60.9h24.4V199.8z"/>
</g>
<text transform="matrix(1 0 0 1 37.6047 -39.2635)" class="st1 st2 st3">Ad</text>
</svg>
