<?xml version="1.0" encoding="utf-8"?>
<!-- Generator: Adobe Illustrator 28.2.0, SVG Export Plug-In . SVG Version: 6.00 Build 0)  -->
<svg version="1.1" id="Layer_1" xmlns="http://www.w3.org/2000/svg" xmlns:xlink="http://www.w3.org/1999/xlink" x="0px" y="0px"
	 viewBox="0 0 812.5 263.7" style="enable-background:new 0 0 812.5 263.7;" xml:space="preserve">
<style type="text/css">
	.st0{fill:#FFFFFF;}
	.st1{enable-background:new    ;}
	.st2{fill:#272A30;}
</style>
<path class="st0" d="M757.8,263.7H54.7C24.5,263.7,0,239.2,0,209V54.7C0,24.5,24.5,0,54.7,0h703.1c30.2,0,54.7,24.5,54.7,54.7V209
	C812.5,239.2,788,263.7,757.8,263.7z"/>
<text transform="matrix(1 0 0 1 60.624 -63.6013)" class="st2" style="font-family:'InterTight-SemiBold'; font-size:198px;">Affiliate</text>
<g class="st1">
	<path class="st2" d="M88.6,207.7H60.6l50.9-144.1h32.1l50.8,144.1h-27.8L128,93.3h-1.2L88.6,207.7z M89.5,151.3h75.9v20.9H89.5
		V151.3z"/>
	<path class="st2" d="M259.3,99.7v19.7h-63.7V99.7H259.3z M211.5,207.7V89.5c0-7.3,1.5-13.3,4.5-18.2c3-4.8,7.1-8.4,12.2-10.8
		c5.1-2.4,10.8-3.6,17-3.6c4.4,0,8.4,0.4,11.8,1.1c3.4,0.7,6,1.4,7.6,1.9l-5.2,19.7c-1-0.4-2.4-0.8-4-1.1c-1.6-0.4-3.4-0.5-5.5-0.5
		c-4.7,0-8.1,1.2-10.1,3.5s-3,5.6-3,9.9v116.4H211.5z"/>
	<path class="st2" d="M327.9,99.7v19.7h-63.7V99.7H327.9z M280,207.7V89.5c0-7.3,1.5-13.3,4.5-18.2c3-4.8,7.1-8.4,12.2-10.8
		c5.1-2.4,10.8-3.6,17-3.6c4.4,0,8.4,0.4,11.8,1.1c3.4,0.7,6,1.4,7.6,1.9L328,79.6c-1-0.4-2.4-0.8-4-1.1c-1.6-0.4-3.4-0.5-5.5-0.5
		c-4.7,0-8.1,1.2-10.1,3.5s-3,5.6-3,9.9v116.4H280z"/>
	<path class="st2" d="M354.3,84.5c-4.1,0-7.5-1.4-10.4-4.1s-4.4-6-4.4-9.8c0-3.9,1.5-7.2,4.4-9.9s6.4-4.1,10.4-4.1
		c4,0,7.4,1.4,10.3,4.1s4.4,6,4.4,9.8c0,3.9-1.5,7.2-4.4,9.9S358.3,84.5,354.3,84.5z M341.5,207.7V99.7H367v108.1H341.5z"/>
	<path class="st2" d="M412.1,63.7v144.1h-25.4V63.7H412.1z"/>
	<path class="st2" d="M444.7,84.5c-4.1,0-7.5-1.4-10.4-4.1s-4.4-6-4.4-9.8c0-3.9,1.5-7.2,4.4-9.9s6.4-4.1,10.4-4.1
		c4,0,7.4,1.4,10.3,4.1s4.4,6,4.4,9.8c0,3.9-1.5,7.2-4.4,9.9S448.7,84.5,444.7,84.5z M431.9,207.7V99.7h25.4v108.1H431.9z"/>
	<path class="st2" d="M508.2,210c-6.9,0-13.1-1.2-18.6-3.7c-5.5-2.5-9.8-6.1-13-11c-3.2-4.8-4.7-10.8-4.7-17.9
		c0-6.1,1.1-11.1,3.4-15.1c2.3-4,5.3-7.2,9.2-9.6c3.9-2.4,8.3-4.2,13.2-5.5c4.9-1.3,10-2.1,15.2-2.7c6.4-0.7,11.5-1.3,15.5-1.8
		c3.9-0.5,6.8-1.4,8.6-2.5c1.8-1.2,2.7-3,2.7-5.4v-0.5c0-5.2-1.5-9.3-4.6-12.2s-7.6-4.4-13.5-4.4c-6.3,0-11.2,1.4-14.8,4.1
		c-3.6,2.7-6.1,5.9-7.4,9.6l-23.7-3.4c1.9-6.6,5-12.1,9.3-16.5c4.3-4.4,9.6-7.7,15.8-10c6.2-2.2,13.1-3.3,20.6-3.3
		c5.2,0,10.3,0.6,15.5,1.8c5.2,1.2,9.9,3.2,14.2,6c4.3,2.8,7.8,6.6,10.3,11.4c2.6,4.8,3.9,10.7,3.9,17.9v72.3h-24.5v-14.9h-0.8
		c-1.5,3-3.7,5.8-6.5,8.4c-2.8,2.6-6.3,4.7-10.4,6.3S513.9,210,508.2,210z M514.7,191.2c5.2,0,9.6-1,13.3-3c3.7-2,6.6-4.7,8.7-8.1
		c2.1-3.4,3.1-7.1,3.1-11.1v-12.7c-0.8,0.6-2.2,1.2-4.1,1.8c-1.9,0.5-4,1-6.4,1.5c-2.4,0.5-4.7,0.8-7,1.2c-2.3,0.3-4.3,0.6-5.9,0.8
		c-3.8,0.5-7.2,1.4-10.2,2.6c-3,1.2-5.4,2.8-7.1,4.9c-1.7,2.1-2.6,4.7-2.6,8c0,4.7,1.7,8.3,5.1,10.6
		C505,190,509.4,191.2,514.7,191.2z"/>
	<path class="st2" d="M638.8,99.7v19.7h-62V99.7H638.8z M592,73.9h25.4v101.3c0,4.3,0.9,7.4,2.8,9.4c1.9,2,4.8,3,8.9,3
		c1.1,0,2.3-0.1,3.7-0.3s2.6-0.4,3.7-0.7l4.4,19.9c-2.7,0.8-5.4,1.5-8.2,1.9c-2.8,0.4-5.5,0.6-8.3,0.6c-10.1,0-18-2.7-23.7-8
		c-5.7-5.3-8.6-12.6-8.6-21.8V73.9z"/>
	<path class="st2" d="M700.6,209.9c-10.8,0-20.2-2.3-28-6.8c-7.9-4.5-13.9-11-18.1-19.3c-4.2-8.3-6.3-18.1-6.3-29.4
		c0-11.1,2.1-20.9,6.3-29.3c4.2-8.4,10.1-15,17.7-19.7c7.6-4.7,16.6-7.1,26.9-7.1c6.6,0,12.9,1.1,18.9,3.2c6,2.1,11.2,5.4,15.9,9.9
		c4.6,4.4,8.2,10.1,10.9,17c2.6,6.9,4,15,4,24.5v7.9H660v-17.1h75.9l-11.9,5c0-6.1-0.9-11.5-2.8-16c-1.9-4.5-4.6-8.1-8.3-10.7
		c-3.7-2.6-8.3-3.9-13.7-3.9c-5.5,0-10.2,1.3-14,3.9c-3.9,2.6-6.8,6-8.8,10.4c-2,4.3-3,9.2-3,14.5v11.9c0,6.6,1.1,12.2,3.4,16.9
		c2.3,4.7,5.5,8.2,9.7,10.7c4.2,2.5,9,3.7,14.5,3.7c3.6,0,6.9-0.5,9.9-1.5c3-1,5.6-2.6,7.7-4.7c2.2-2.1,3.8-4.7,5-7.8l23.8,2.8
		c-1.5,6.3-4.4,11.7-8.6,16.4c-4.2,4.7-9.5,8.3-16,10.8C716.4,208.6,709,209.9,700.6,209.9z"/>
</g>
</svg>
