<?xml version="1.0" encoding="utf-8"?>
<!-- Generator: Adobe Illustrator 28.2.0, SVG Export Plug-In . SVG Version: 6.00 Build 0)  -->
<svg version="1.1" id="Layer_1" xmlns="http://www.w3.org/2000/svg" xmlns:xlink="http://www.w3.org/1999/xlink" x="0px" y="0px"
	 viewBox="0 0 122.9 116.9" style="enable-background:new 0 0 122.9 116.9;" xml:space="preserve">
<style type="text/css">
	.st0{fill-rule:evenodd;clip-rule:evenodd;fill:#415CD2;}
</style>
<path class="st0" d="M122.9,58.4l-13.7-15.6l2-20.5l-20.3-4.5L80.4,0L61.4,8.2L42.5,0L31.9,17.9l-20.2,4.5l2,20.7L0,58.4L13.7,74
	l-2,20.5L32,99.1l10.5,17.8l19.1-8.2l18.9,8.2L91,99l20.2-4.5l-2-20.7L122.9,58.4z M84.9,49.5L61.7,77.2c-2.6,2.8-7,3-9.9,0.4
	C47.8,73.9,42,68.5,37.9,65c-6.1-6.5,3.2-16.3,10-10.1c2.4,2.2,5.8,5.3,8.2,7.5l18.5-22.7C81.1,33,91.3,42.8,84.9,49.5z"/>
</svg>
