<?xml version="1.0" encoding="utf-8"?>
<!-- Generator: Adobe Illustrator 27.7.0, SVG Export Plug-In . SVG Version: 6.00 Build 0)  -->
<svg version="1.1" id="Layer_1" xmlns="http://www.w3.org/2000/svg" xmlns:xlink="http://www.w3.org/1999/xlink" x="0px" y="0px"
	 viewBox="0 0 326 263.7" style="enable-background:new 0 0 326 263.7;" xml:space="preserve">
<style type="text/css">
	.st0{fill:#FFFFFF;}
</style>
<g>
	<polygon class="st0" points="108.4,88.7 89.7,144.4 128.2,144.4 109.5,88.7 	"/>
	<path class="st0" d="M238.2,117.7c-3.6-2.7-8.1-4.1-13.3-4.1c-5.4,0-9.9,1.4-13.5,4.3c-3.6,2.8-6.4,6.8-8.2,11.8
		c-1.8,5-2.7,10.7-2.7,17.2c0,6.4,0.9,12.2,2.8,17.3c1.9,5.1,4.6,9.1,8.2,12c3.6,2.9,8.1,4.4,13.5,4.4c5.2,0,9.6-1.4,13.2-4.2
		c3.6-2.8,6.4-6.7,8.3-11.8c1.9-5,2.9-10.9,2.9-17.6c0-6.7-0.9-12.6-2.8-17.6C244.6,124.2,241.8,120.4,238.2,117.7z"/>
	<path class="st0" d="M274.5,0h-223C23.1,0,0,23.1,0,51.5v160.7c0,28.4,23.1,51.5,51.5,51.5h223c28.4,0,51.5-23.1,51.5-51.5V51.5
		C326,23.1,302.9,0,274.5,0z M146.4,198.6l-11.5-34.1H83l-11.4,34.1H44.8L93.6,60.3h30.8l48.7,138.2H146.4z M273.1,198.6h-23.8
		v-16.4h-1.5c-1.3,2.5-3.1,5.2-5.5,8c-2.4,2.8-5.5,5.2-9.4,7.2c-3.9,2-8.8,3-14.8,3c-8.1,0-15.4-2.1-21.8-6.3
		c-6.5-4.2-11.6-10.3-15.3-18.2s-5.6-17.7-5.6-29c0-11.6,1.9-21.3,5.7-29.2c3.8-7.9,8.9-13.9,15.4-18c6.4-4.1,13.6-6.1,21.6-6.1
		c6.1,0,11.1,1,15,3.1s7,4.5,9.3,7.4s4.1,5.6,5.3,8h1V60.3h24.3V198.6z"/>
</g>
</svg>
