<?xml version="1.0" encoding="utf-8"?>
<!-- Generator: Adobe Illustrator 28.2.0, SVG Export Plug-In . SVG Version: 6.00 Build 0)  -->
<svg version="1.1" id="Layer_1" xmlns="http://www.w3.org/2000/svg" xmlns:xlink="http://www.w3.org/1999/xlink" x="0px" y="0px"
	 viewBox="0 0 812.5 263.7" style="enable-background:new 0 0 812.5 263.7;" xml:space="preserve">
<style type="text/css">
	.st0{fill:#FFFFFF;}
	.st1{enable-background:new    ;}
	.st2{fill:#272A30;}
</style>
<path class="st0" d="M757.8,263.7H54.7C24.5,263.7,0,239.2,0,209V54.7C0,24.5,24.5,0,54.7,0h703.1c30.2,0,54.7,24.5,54.7,54.7V209
	C812.5,239.2,788,263.7,757.8,263.7z"/>
<g class="st1">
	<path class="st2" d="M75.6,202.9H43L92.7,58.8H132l49.6,144.1h-32.5L112.9,91.7h-1.2L75.6,202.9z M73.7,146.2h77.1V170H73.7V146.2z
		"/>
	<path class="st2" d="M250.3,94.8v22.6h-66.6V94.8H250.3z M198.9,202.9V87c0-7.8,1.5-14.3,4.6-19.4c3.1-5.2,7.3-9,12.6-11.6
		c5.3-2.6,11.4-3.9,18.1-3.9c4.6,0,8.9,0.4,12.7,1.1c3.8,0.7,6.7,1.4,8.5,1.9l-5.2,22.4c-1.2-0.3-2.7-0.6-4.4-1
		c-1.7-0.3-3.4-0.5-5.3-0.5c-4.4,0-7.4,1-9.2,3c-1.7,2-2.6,4.9-2.6,8.6v115.2H198.9z"/>
	<path class="st2" d="M322.5,94.8v22.6h-66.6V94.8H322.5z M271.2,202.9V87c0-7.8,1.5-14.3,4.6-19.4c3.1-5.2,7.3-9,12.6-11.6
		c5.3-2.6,11.4-3.9,18.1-3.9c4.6,0,8.9,0.4,12.7,1.1c3.8,0.7,6.7,1.4,8.5,1.9l-5.2,22.4c-1.2-0.3-2.7-0.6-4.4-1
		c-1.7-0.3-3.4-0.5-5.3-0.5c-4.4,0-7.4,1-9.2,3c-1.7,2-2.6,4.9-2.6,8.6v115.2H271.2z"/>
	<path class="st2" d="M351.3,81c-4.4,0-8.3-1.5-11.4-4.4c-3.2-3-4.7-6.5-4.7-10.7c0-4.2,1.6-7.7,4.7-10.7c3.2-2.9,7-4.4,11.4-4.4
		c4.5,0,8.3,1.5,11.5,4.4c3.2,2.9,4.7,6.5,4.7,10.7c0,4.2-1.6,7.8-4.7,10.7C359.6,79.5,355.8,81,351.3,81z M336.4,202.9V94.8h29.9
		v108.1H336.4z"/>
	<path class="st2" d="M415.7,58.8v144.1h-29.9V58.8H415.7z"/>
	<path class="st2" d="M450.2,81c-4.4,0-8.3-1.5-11.4-4.4c-3.2-3-4.7-6.5-4.7-10.7c0-4.2,1.6-7.7,4.7-10.7c3.2-2.9,7-4.4,11.4-4.4
		c4.5,0,8.3,1.5,11.5,4.4c3.2,2.9,4.7,6.5,4.7,10.7c0,4.2-1.6,7.8-4.7,10.7C458.5,79.5,454.7,81,450.2,81z M435.3,202.9V94.8h29.9
		v108.1H435.3z"/>
	<path class="st2" d="M515.5,204.9c-6.8,0-13-1.2-18.4-3.6c-5.4-2.4-9.7-6-12.8-10.8c-3.1-4.8-4.6-10.7-4.6-17.8
		c0-6.1,1.1-11.1,3.3-15.1c2.2-4,5.2-7.3,9-9.8c3.8-2.5,8.1-4.4,13-5.7c4.8-1.3,10-2.2,15.4-2.7c6.3-0.6,11.3-1.2,15.1-1.7
		c3.8-0.6,6.6-1.5,8.4-2.7c1.8-1.2,2.7-2.9,2.7-5.2v-0.5c0-4.4-1.4-7.9-4.2-10.3c-2.8-2.4-6.8-3.7-11.8-3.7c-5.4,0-9.6,1.2-12.8,3.5
		c-3.2,2.4-5.3,5.3-6.3,8.9l-27.7-2.2c1.4-6.6,4.2-12.3,8.3-17.1c4.1-4.8,9.5-8.5,16-11.1c6.5-2.6,14.1-3.9,22.8-3.9
		c6,0,11.7,0.7,17.2,2.1c5.5,1.4,10.4,3.6,14.6,6.5c4.3,2.9,7.7,6.7,10.2,11.4s3.8,10.2,3.8,16.5v72.9h-28.5v-15.1H547
		c-1.7,3.4-4.1,6.4-7,8.9c-2.9,2.5-6.4,4.5-10.4,6C525.6,204.2,520.9,204.9,515.5,204.9z M524.1,184.2c4.4,0,8.3-0.9,11.7-2.7
		c3.4-1.8,6-4.2,7.9-7.2c1.9-3,2.9-6.4,2.9-10.1v-11.5c-0.9,0.6-2.2,1.1-3.8,1.6c-1.6,0.5-3.5,1-5.5,1.4c-2,0.4-4,0.7-6,1
		c-2,0.3-3.8,0.6-5.4,0.8c-3.5,0.5-6.6,1.3-9.3,2.5c-2.6,1.1-4.7,2.6-6.1,4.5c-1.5,1.9-2.2,4.3-2.2,7.1c0,4.1,1.5,7.2,4.4,9.3
		C515.7,183.2,519.5,184.2,524.1,184.2z"/>
	<path class="st2" d="M653.1,94.8v22.6h-65.1V94.8H653.1z M602.9,69.1h29.9v100.5c0,3.6,0.8,6.3,2.4,8c1.6,1.7,4.2,2.6,7.7,2.6
		c1.2,0,2.4-0.1,3.9-0.3c1.4-0.2,2.6-0.4,3.7-0.7l4.7,22.4c-3.3,1-6.5,1.7-9.5,2.1c-3.1,0.5-6.1,0.7-9,0.7
		c-10.8,0-19.1-2.7-24.9-8.1c-5.9-5.4-8.8-13-8.8-22.8V69.1z"/>
	<path class="st2" d="M716.3,205c-11.1,0-20.7-2.3-28.7-6.8c-8.1-4.5-14.2-10.9-18.5-19.3c-4.3-8.3-6.4-18.2-6.4-29.6
		c0-11.1,2.1-20.8,6.4-29.2c4.3-8.4,10.3-14.9,18.2-19.6c7.8-4.7,17-7.1,27.6-7.1c7.2,0,13.8,1.1,20,3.4c6.2,2.3,11.6,5.7,16.2,10.2
		c4.6,4.5,8.2,10.2,10.8,17.1c2.6,6.9,3.9,14.9,3.9,24.1v8.1h-91.3V138h76.8l-13.9,4.8c0-5.5-0.8-10.2-2.5-14.3
		c-1.7-4.1-4.2-7.2-7.5-9.4c-3.3-2.2-7.4-3.3-12.3-3.3c-4.9,0-9,1.1-12.4,3.4c-3.4,2.3-6,5.3-7.8,9.2c-1.8,3.9-2.7,8.3-2.7,13.3
		v13.1c0,5.9,1,10.9,3.1,15c2.1,4.2,4.9,7.3,8.7,9.6c3.7,2.2,8,3.3,12.8,3.3c3.4,0,6.4-0.5,9.1-1.5s5-2.4,7-4.3
		c2-1.9,3.4-4.1,4.4-6.8l27.7,1.8c-1.4,6.6-4.2,12.4-8.5,17.4c-4.3,4.9-9.8,8.8-16.6,11.5C733,203.6,725.2,205,716.3,205z"/>
</g>
<text transform="matrix(1 0 0 1 17.9966 -125.6013)" class="st2" style="font-family:'InterTight-Bold'; font-size:198px; letter-spacing:1;">Affiliate</text>
</svg>
