<?xml version="1.0" encoding="utf-8"?>
<!-- Generator: Adobe Illustrator 28.2.0, SVG Export Plug-In . SVG Version: 6.00 Build 0)  -->
<svg version="1.1" id="Layer_1" xmlns="http://www.w3.org/2000/svg" xmlns:xlink="http://www.w3.org/1999/xlink" x="0px" y="0px"
	 viewBox="0 0 714 263.7" style="enable-background:new 0 0 714 263.7;" xml:space="preserve">
<style type="text/css">
	.st0{fill:#FFFFFF;}
</style>
<g>
	<path class="st0" d="M648.7,141c-0.4-3.9-1.2-7.4-2.5-10.6c-1.8-4.4-4.5-7.8-8-10.3c-3.5-2.5-8-3.7-13.2-3.7
		c-5.3,0-9.8,1.2-13.5,3.7c-3.7,2.5-6.6,5.8-8.5,10c-1.5,3.3-2.4,6.9-2.8,10.9H648.7z"/>
	<path class="st0" d="M473,156.4c-2.3,0.4-4.6,0.8-6.8,1.1c-2.2,0.3-4.1,0.6-5.7,0.7c-3.7,0.5-6.9,1.3-9.8,2.5
		c-2.9,1.2-5.2,2.7-6.9,4.7c-1.7,2-2.5,4.6-2.5,7.7c0,4.5,1.6,8,4.9,10.3c3.3,2.3,7.5,3.5,12.6,3.5c5,0,9.3-1,12.9-2.9
		c3.6-2,6.4-4.6,8.4-7.8c2-3.3,3-6.8,3-10.7v-12.2c-0.8,0.6-2.1,1.2-3.9,1.7C477.4,155.5,475.3,156,473,156.4z"/>
	<polygon class="st0" points="105.2,92.4 86.5,148.4 125.2,148.4 106.4,92.4 	"/>
	<path class="st0" d="M657,0H57C25.5,0,0,30,0,67.1v129.5c0,37.1,25.5,67.1,57,67.1H657c31.5,0,57-30.1,57-67.1V67.1
		C714,30,688.5,0,657,0z M143.5,202.8l-11.5-34.3H79.8l-11.5,34.3h-27l49.1-139h31l49,139H143.5z M227.2,79.3
		c-1-0.4-2.3-0.7-3.8-1.1c-1.6-0.3-3.3-0.5-5.3-0.5c-4.5,0-7.8,1.1-9.7,3.4c-2,2.2-2.9,5.4-2.9,9.5v8h21.7v19h-21.7v85.2H181v-85.2
		h-15.3v-19H181v-9.8c0-7,1.5-12.9,4.4-17.5c2.9-4.7,6.9-8.1,11.8-10.4c4.9-2.3,10.4-3.5,16.4-3.5c4.3,0,8.1,0.3,11.4,1
		c3.3,0.7,5.8,1.3,7.3,1.9L227.2,79.3z M295.4,79.3c-1-0.4-2.3-0.7-3.8-1.1c-1.6-0.3-3.3-0.5-5.3-0.5c-4.5,0-7.8,1.1-9.7,3.4
		c-2,2.2-2.9,5.4-2.9,9.5v8h21.7v19h-21.7v85.2h-24.4v-85.2h-15.3v-19h15.3v-9.8c0-7,1.5-12.9,4.4-17.5c2.9-4.7,6.9-8.1,11.8-10.4
		c4.9-2.3,10.4-3.5,16.4-3.5c4.3,0,8.1,0.3,11.4,1c3.3,0.7,5.8,1.3,7.3,1.9L295.4,79.3z M334.1,202.8h-24.5V98.6h24.5V202.8z
		 M331.9,80c-2.8,2.6-6.1,3.9-10,3.9c-3.9,0-7.3-1.3-10.1-3.9s-4.2-5.8-4.2-9.4c0-3.7,1.4-6.9,4.2-9.5s6.2-3.9,10.1-3.9
		c3.9,0,7.2,1.3,10,3.9s4.2,5.8,4.2,9.4C336.1,74.2,334.7,77.4,331.9,80z M371.8,202.8h-24.5v-139h24.5V202.8z M409.4,202.8h-24.5
		V98.6h24.5V202.8z M407.2,80c-2.8,2.6-6.1,3.9-10,3.9c-3.9,0-7.3-1.3-10.1-3.9s-4.2-5.8-4.2-9.4c0-3.7,1.4-6.9,4.2-9.5
		s6.2-3.9,10.1-3.9c3.9,0,7.2,1.3,10,3.9s4.2,5.8,4.2,9.4C411.4,74.2,410,77.4,407.2,80z M507.5,202.8h-23.6v-14.4h-0.7
		c-1.5,2.9-3.6,5.5-6.3,8.1c-2.7,2.5-6.1,4.6-10.1,6.1c-4,1.6-8.8,2.3-14.2,2.3c-6.7,0-12.6-1.2-17.9-3.6
		c-5.3-2.4-9.5-5.9-12.5-10.6c-3-4.7-4.6-10.4-4.6-17.3c0-5.8,1.1-10.7,3.3-14.5c2.2-3.9,5.1-6.9,8.9-9.2c3.8-2.3,8-4.1,12.7-5.3
		c4.7-1.2,9.6-2.1,14.6-2.6c6.2-0.7,11.1-1.3,14.9-1.8c3.8-0.5,6.5-1.3,8.3-2.4c1.7-1.1,2.6-2.9,2.6-5.2v-0.5c0-5-1.5-9-4.5-11.8
		c-3-2.8-7.3-4.2-13.1-4.2c-6,0-10.8,1.3-14.3,3.9c-3.5,2.6-5.9,5.7-7.1,9.2l-22.8-3.3c1.8-6.3,4.8-11.6,9-15.9
		c4.2-4.3,9.2-7.5,15.2-9.6c6-2.1,12.6-3.2,19.9-3.2c5,0,9.9,0.6,14.9,1.7c5,1.2,9.5,3.1,13.7,5.8c4.2,2.7,7.5,6.4,10,11
		c2.5,4.6,3.7,10.4,3.7,17.3V202.8z M566.7,203.6c-2.7,0.4-5.3,0.6-8,0.6c-9.7,0-17.3-2.6-22.8-7.7c-5.5-5.1-8.3-12.1-8.3-21v-57.9
		h-14.6v-19h14.6V73.8h24.5v24.8h20.6v19h-20.6v53.9c0,4.1,0.9,7.1,2.7,9.1c1.8,2,4.7,2.9,8.6,2.9c1.1,0,2.2-0.1,3.5-0.3
		s2.5-0.4,3.5-0.7l4.2,19.2C572,202.6,569.4,203.2,566.7,203.6z M672.6,157.5h-72.5c0.2,5.5,1.3,10.4,3.3,14.4
		c2.2,4.5,5.3,7.9,9.3,10.3c4,2.4,8.7,3.5,14,3.5c3.5,0,6.7-0.5,9.6-1.5c2.9-1,5.4-2.5,7.5-4.5c2.1-2,3.7-4.5,4.8-7.5l22.9,2.7
		c-1.5,6-4.2,11.3-8.3,15.8c-4,4.5-9.1,8-15.4,10.4c-6.2,2.5-13.4,3.7-21.5,3.7c-10.4,0-19.5-2.2-27-6.6
		c-7.6-4.4-13.4-10.6-17.5-18.6c-4.1-8-6.1-17.5-6.1-28.4c0-10.8,2-20.2,6.1-28.3c4-8.1,9.7-14.4,17.1-19c7.3-4.5,16-6.8,25.9-6.8
		c6.4,0,12.5,1,18.2,3.1c5.8,2.1,10.8,5.2,15.3,9.5c4.4,4.3,7.9,9.7,10.5,16.4c2.5,6.6,3.8,14.5,3.8,23.6V157.5z"/>
</g>
<text transform="matrix(1 0 0 1 43.4669 -96.5063)" class="st0" style="font-family:'InterTight-SemiBold'; font-size:191px; letter-spacing:-4;">Affiliate</text>
</svg>
