<?xml version="1.0" encoding="utf-8"?>
<!-- Generator: Adobe Illustrator 28.2.0, SVG Export Plug-In . SVG Version: 6.00 Build 0)  -->
<svg version="1.1" id="Layer_2_00000182489888624294165690000016163855160582380465_"
	 xmlns="http://www.w3.org/2000/svg" xmlns:xlink="http://www.w3.org/1999/xlink" x="0px" y="0px" viewBox="0 0 1320.8 200"
	 style="enable-background:new 0 0 1320.8 200;" xml:space="preserve">
<style type="text/css">
	.st0{fill:#090B0B;}
</style>
<path class="st0" d="M1158.6,5.4h162.2v189.2h-162.2V5.4z M745.2,194.6H906v-40.5h-99.2v-37.3h85.1v-36h-85.1V44.6h97.3V5.4H745.2
	V194.6z M236.5,115.1l-61.6-1.3c-2.7,27.6-26.6,44.9-51.6,44.9c-34.3,0-59.7-23-59.7-58.7s25.4-59,59.7-59.7
	c25.1-0.5,49.5,17.6,51.1,45.1l61.6-1.9C234.6,33.8,192.2,0,123.2,0S0,38.9,0,100s51.9,100,123.2,100S234.9,165.7,236.5,115.1
	L236.5,115.1z M496.1,100c0-60.3-48.8-100-118.9-100S258.3,39.7,258.3,100s48.8,100,118.9,100S496.1,160.5,496.1,100z M377.2,39.7
	c32.8,0,55.4,24.6,55.4,60.3s-22.6,59.2-55.4,59.2s-55.4-24.1-55.4-59.2S344.7,39.7,377.2,39.7z M518,194.6h78.4
	c76,0,127-35.4,127-94.6s-51.1-94.6-127-94.6H518V194.6z M660.4,100c0,36.2-26.8,56.8-66.8,56.8h-13.5V43h13.5
	C633.6,43,660.4,63.2,660.4,100z M933.2,194.6h62.2v-63.5h16.5c19.7,0,37.3,7.8,42.4,29.7l5.9,33.8h71.1l-7.6-36.5
	c-7.3-29.6-25.1-49-62.4-51.4v-1.6c38.4,0,61.9-17.3,61.9-45.1c0-33.8-34.6-54.6-91.3-54.6h-98.7L933.2,194.6L933.2,194.6z
	 M1061.1,69.7c0,17.6-13.2,28.1-34.6,28.1h-31.1v-56h31.1C1047.8,41.9,1061.1,52.4,1061.1,69.7z"/>
</svg>
