<?xml version="1.0" encoding="utf-8"?>
<!-- Generator: Adobe Illustrator 28.2.0, SVG Export Plug-In . SVG Version: 6.00 Build 0)  -->
<svg version="1.1" id="Layer_1" xmlns="http://www.w3.org/2000/svg" xmlns:xlink="http://www.w3.org/1999/xlink" x="0px" y="0px"
	 viewBox="0 0 512 512" style="enable-background:new 0 0 512 512;" xml:space="preserve">
<style type="text/css">
	.st0{fill:#E5F25F;}
</style>
<path d="M414.5,512h-317C43.7,512,0,468.3,0,414.5v-317C0,43.7,43.7,0,97.5,0h317C468.3,0,512,43.7,512,97.5v317
	C512,468.3,468.3,512,414.5,512z"/>
<path class="st0" d="M410.2,198.7c-15.4-15.4-35.8-24-57.5-24c-20.5,0-41.4,8.9-62.2,26.5c-14.7,12.4-26.4,26.8-34.6,38.4
	c-7.1-9.5-18.2-23.1-32.4-35.7c-10.4-9.3-20.7-16.6-30.7-21.7c-11.6-5.9-22.9-8.9-33.4-8.9c-21.8,0-42.3,8.5-57.6,24
	S78,233.4,78,255.3s8.5,42.6,23.8,58.1c15.4,15.4,35.9,24,57.6,24c24.6,0,49.2-17.5,65.4-32.2c14.3-12.9,25-26.1,31.3-34.6
	c11.3,15.5,24.3,32.1,38.5,44.4c18.6,16.2,37,23.7,58,23.7c21.7,0,42.1-8.6,57.5-24.1c15.4-15.4,23.8-36.1,23.8-58
	C434,234.8,425.5,214.2,410.2,198.7 M203.7,281.7c-17,15.3-33,24.1-44.2,24.1c-27.5,0-49.9-22.7-49.9-50.5s22.4-50.5,49.9-50.5
	c11.5,0,26.8,8.1,43.1,22.6c8.8,7.8,17.7,17.6,25.7,27.8C220.9,264.5,212.2,274,203.7,281.7 M352.6,307.1
	c-13.1,0-24.6-4.9-37.3-15.9c-9.3-8.1-19-19.2-31.6-36.2c8.4-11.5,17.7-21.7,27.1-29.8c14.7-12.4,29.1-19,41.7-19
	c27.5,0,49.8,22.7,49.8,50.5S380.1,307.1,352.6,307.1"/>
</svg>
