<?xml version="1.0" encoding="utf-8"?>
<!-- Generator: Adobe Illustrator 28.2.0, SVG Export Plug-In . SVG Version: 6.00 Build 0)  -->
<svg version="1.1" id="Layer_1" xmlns="http://www.w3.org/2000/svg" xmlns:xlink="http://www.w3.org/1999/xlink" x="0px" y="0px"
	 viewBox="0 0 512 512" style="enable-background:new 0 0 512 512;" xml:space="preserve">
<style type="text/css">
	.st0{fill:#F7FE62;}
</style>
<path class="st0" d="M443.5,512h-375C30.7,512,0,481.3,0,443.5v-375C0,30.7,30.7,0,68.5,0h375C481.3,0,512,30.7,512,68.5v375
	C512,481.3,481.3,512,443.5,512z"/>
<path d="M400.9,202.1c-14.4-14.5-33.7-22.6-54.1-22.6c-19.3,0-38.9,8.4-58.4,24.9c-13.9,11.7-24.8,25.2-32.5,36.1
	c-6.7-9-17.1-21.7-30.5-33.5c-9.7-8.8-19.5-15.6-28.9-20.4c-10.9-5.6-21.5-8.4-31.4-8.4c-20.5,0-39.7,8-54.2,22.6
	c-14.4,14.6-22.4,33.9-22.4,54.5c0,20.6,8,40,22.4,54.6c14.5,14.5,33.7,22.6,54.2,22.6c23.1,0,46.2-16.5,61.5-30.3
	c13.4-12.2,23.5-24.5,29.4-32.5c10.6,14.6,22.9,30.1,36.2,41.8c17.5,15.2,34.8,22.3,54.5,22.3c20.4,0,39.5-8,54.1-22.6
	c14.4-14.5,22.4-33.9,22.4-54.5S415.4,216.7,400.9,202.1 M206.8,280.2c-15.9,14.4-31,22.6-41.6,22.6c-25.9,0-46.9-21.3-46.9-47.5
	s21-47.5,46.9-47.5c10.8,0,25.2,7.6,40.5,21.2c8.2,7.3,16.7,16.5,24.1,26.1C223,264,214.9,272.9,206.8,280.2 M346.8,304
	c-12.3,0-23.1-4.6-35-15c-8.8-7.6-17.8-18-29.7-34.1c7.9-10.9,16.6-20.4,25.5-28c13.8-11.6,27.4-17.8,39.2-17.8
	c25.8,0,46.8,21.3,46.8,47.5S372.6,304,346.8,304"/>
</svg>
