<?xml version="1.0" encoding="utf-8"?>
<!-- Generator: Adobe Illustrator 28.2.0, SVG Export Plug-In . SVG Version: 6.00 Build 0)  -->
<svg version="1.1" id="Layer_1" xmlns="http://www.w3.org/2000/svg" xmlns:xlink="http://www.w3.org/1999/xlink" x="0px" y="0px"
	 viewBox="0 0 512 512" style="enable-background:new 0 0 512 512;" xml:space="preserve">
<style type="text/css">
	.st0{fill:#FFFFFF;}
	.st1{fill:#185F85;}
	.st2{fill:#0D84BE;}
	.st3{fill:#2A2D31;}
	.st4{fill:#1A9BD7;}
</style>
<polygon class="st0" points="477.7,384 477.7,128 256,0 34.3,128 34.3,384 256,512 "/>
<polygon class="st1" points="163.7,376.7 163.7,393.3 163.7,415.6 222.3,449.1 236.6,457.6 255.8,468.7 269.4,444.3 275.1,418.3 
	255.8,401.4 163.7,347.9 "/>
<path class="st2" d="M440.3,362.5V255.8c0-35.2,0-70.7,0-106.3l-38.6-1.3l-8.1,12.5l-11.8,22.7v145.2l-125.9,72.8v28.4v38.9
	C317.4,433.2,378.7,397.7,440.3,362.5z"/>
<polygon class="st3" points="129.9,222.3 129.9,115.7 71.7,149.5 71.7,362.5 129.9,395.9 129.9,289.7 255.8,362.5 255.8,362.5 
	255.8,294.8 188.5,255.8 255.8,216.9 255.8,149.5 "/>
<path class="st4" d="M255.8,43.3c61.6,35.5,122.9,70.7,184.5,106.3l-33.9,19.6l-24.7,14.2l-125.9-72.8l-92.1,53.1
	c0-22.3,0-45,0-67.3L255.8,43.3z"/>
</svg>
