<?xml version="1.0" encoding="utf-8"?>
<!-- Generator: Adobe Illustrator 28.2.0, SVG Export Plug-In . SVG Version: 6.00 Build 0)  -->
<svg version="1.1" id="Layer_1" xmlns="http://www.w3.org/2000/svg" xmlns:xlink="http://www.w3.org/1999/xlink" x="0px" y="0px"
	 viewBox="0 0 400 512" style="enable-background:new 0 0 400 512;" xml:space="preserve">
<style type="text/css">
	.st0{fill-rule:evenodd;clip-rule:evenodd;fill:#1F2026;}
</style>
<path class="st0" d="M192.2,5.2c0-4.3-4.9-6.7-8.3-4.1L26.3,121.9c-1.3,1-2,2.5-2,4.1v90.3c0,4.2,4.8,6.6,8.2,4.2l157.6-115.1
	c1.3-1,2.1-2.5,2.1-4.2L192.2,5.2L192.2,5.2z M212.9,405.2c-38.4,7.1-75.3-18.2-82.4-56.5c-7.1-38.3,18.2-75.2,56.6-82.3
	c38.4-7.1,75.3,18.2,82.4,56.5C276.6,361.2,251.3,398.1,212.9,405.2z M353.3,248.9c-48-84.7-155.5-114.4-240.2-66.4
	S-1.3,338,46.7,422.7s155.5,114.4,240.2,66.4C371.5,441.1,401.3,333.6,353.3,248.9z"/>
</svg>
