<svg xmlns="http://www.w3.org/2000/svg" xml:space="preserve" viewBox="0 0 544 109" class="logo-directory"><path class="logo-directory-primary" d="M215.6 88.9c-4.8 0-9.1-1.2-12.8-3.7-3.7-2.4-6.6-5.8-8.6-10.2-2.1-4.3-3.1-9.3-3.1-14.8 0-5.7 1-10.7 3.1-15s5-7.7 8.6-10.2c3.7-2.4 7.9-3.7 12.8-3.7 4.8 0 9.1 1.2 12.7 3.7 3.7 2.4 6.5 5.8 8.6 10.2s3.1 9.4 3.1 15-1 10.6-3.1 14.8c-2.1 4.3-5 7.7-8.6 10.2-3.7 2.5-8 3.7-12.7 3.7m0-5.8c3.9 0 7.2-1 9.8-3.1 2.7-2.1 4.7-4.9 6.1-8.3q2.1-5.25 2.1-11.4c0-4.2-.7-8-2.1-11.5s-3.4-6.3-6.1-8.4-6-3.1-9.8-3.1c-3.9 0-7.1 1.1-9.8 3.2s-4.7 4.9-6.1 8.4-2.1 7.3-2.1 11.5q0 6.15 2.1 11.4c1.4 3.5 3.4 6.3 6.1 8.3 2.7 1.9 5.9 3 9.8 3" style="opacity:.2"/><path class="logo-directory-primary" d="M37.3 63.6c2.3 2.4 3.5 5.5 3.5 9.2 0 3.1-.9 5.9-2.6 8.4s-4.3 4.4-7.3 5.8q-4.65 2.1-10.8 2.1c-5.4 0-9.9-1.2-13.3-3.7S1 79.2 0 74.6l6.2-1.5c.8 3.3 2.3 5.8 4.7 7.5s5.4 2.5 9.3 2.5c4.3 0 7.7-1 10.3-2.9q3.9-2.85 3.9-7.2c0-4.6-3-7.6-9.1-9.1l-9.1-2.2c-4.8-1.2-8.4-3-10.8-5.5C3 53.9 1.8 50.8 1.8 47c0-3.1.8-5.8 2.5-8.1 1.7-2.4 4-4.2 6.9-5.5s6.2-2 10-2c5.1 0 9.2 1.2 12.3 3.5s5.2 5.5 6.6 9.5l-6 1.6c-.9-2.5-2.3-4.6-4.3-6.4-2-1.7-4.9-2.6-8.6-2.6-3.8 0-6.8.9-9.3 2.7q-3.6 2.7-3.6 6.9c0 2.4.8 4.3 2.5 5.8 1.6 1.5 4.2 2.7 7.6 3.6l8.4 2c4.6 1.3 8.1 3.1 10.5 5.6M94.4 59c0-4.8-.6-8.9-1.9-12.4-1.2-3.4-2.9-6.2-5-8.2-2.2-2.3-4.8-4-7.6-5.1s-5.7-1.7-8.7-1.7c-4.8 0-9 1.2-12.7 3.7-3.6 2.5-6.5 6-8.5 10.3-2.1 4.2-3.1 9.3-3.1 14.8s1 10.5 3.1 14.8c2 4.4 5 7.7 8.7 10.1 3.7 2.5 8.2 3.7 13.4 3.7 3.6 0 6.9-.6 9.8-1.8q4.35-1.8 7.2-4.8c1.9-2 3.3-4.2 4.2-6.5l-6.1-2c-.7 1.7-1.7 3.2-3.1 4.6-1.3 1.4-3 2.6-5 3.4q-3 1.2-6.9 1.2c-3.8 0-7.2-.9-10-2.7-2.9-1.8-5.1-4.4-6.6-7.7-1.4-3-2.2-6.6-2.3-10.7h41.1zm-41.1-2.7c.2-3.2.9-6.1 2-8.8q2.25-4.65 6.3-7.5c2.7-1.9 5.8-2.8 9.4-2.8s6.6.9 9.2 2.8 4.5 4.4 5.9 7.6c1.1 2.6 1.8 5.5 2 8.7zm49.9 31.4h6.4v-74h-6.4zm36.9-77.4c-2.5 0-4.9.5-7.1 1.6s-4.1 2.6-5.5 4.7-2.1 4.6-2.1 7.6v8.1h-8.6v5.6h8.6v50h6.4v-50h12.4v-5.6h-12.4v-6.7c0-2.9.8-5.2 2.3-6.8 1.6-1.6 3.7-2.4 6.5-2.4q1.65 0 2.7.3t1.8.6l1.9-5.6c-.6-.3-1.5-.6-2.6-.9-1.2-.4-2.6-.5-4.3-.5m45.1 23.5c-2.9-1.5-6.2-2.3-9.9-2.3-4.2 0-7.7.9-10.4 2.6s-4.7 4-6 6.9h-.6V13.7H152v74h6.4V53c0-3.3.7-6.1 2-8.4s3.2-4.2 5.5-5.4c2.3-1.3 4.9-1.9 7.9-1.9 4.3 0 7.8 1.3 10.4 4s3.9 6.3 3.9 10.9v35.5h6.5V51.8c0-4.4-.8-8.2-2.4-11.2-1.9-3-4.1-5.3-7-6.8M261 58.2l-8.4-2c-3.5-.9-6-2-7.6-3.6-1.6-1.5-2.5-3.4-2.5-5.8q0-4.2 3.6-6.9t9.3-2.7c3.8 0 6.6.9 8.6 2.6s3.4 3.9 4.3 6.4l5.9-1.6c-1.3-4-3.5-7.2-6.6-9.5s-7.1-3.5-12.3-3.5c-3.7 0-7 .7-10 2-2.9 1.3-5.2 3.2-6.9 5.5-1.7 2.4-2.5 5.1-2.5 8.1 0 3.7 1.2 6.8 3.5 9.3s5.9 4.3 10.8 5.5l9.1 2.2c6.1 1.5 9.1 4.5 9.1 9.1 0 2.9-1.3 5.2-3.9 7.2-2.6 1.9-6 2.9-10.3 2.9-3.8 0-6.9-.8-9.3-2.5s-3.9-4.2-4.7-7.5l-6.2 1.5c1 4.6 3.3 8.2 6.8 10.6 3.5 2.5 8 3.7 13.3 3.7q6.15 0 10.8-2.1c3.1-1.4 5.5-3.3 7.2-5.8s2.6-5.2 2.6-8.4c0-3.7-1.2-6.8-3.5-9.2-2.2-2.4-5.6-4.4-10.2-5.5m43.1 23.9c-.6.1-1.2.1-1.8.1-2.7 0-4.7-.8-6.2-2.3s-2.2-3.8-2.2-6.8V37.8h11.8v-5.6H294V18.9h-6.4V32h-8.3v5.6h8.3v37.1c0 4.1 1.4 7.4 4.1 10 2.7 2.5 6.1 3.8 10.3 3.8 1.1 0 2.1-.1 3.1-.2 1-.2 1.9-.4 2.6-.7l-1.4-5.8c-1 .1-1.6.3-2.2.3m29.2-71.9-23.8 88.7h6.1l23.8-88.7zM215.4 89.3c-1.4 0-2.7-.5-3.7-1.5s-1.5-2.3-1.5-3.7.5-2.7 1.5-3.7 2.3-1.5 3.7-1.5c1.5 0 2.7.5 3.7 1.5s1.5 2.3 1.5 3.7-.5 2.7-1.5 3.7-2.3 1.5-3.7 1.5"/><path class="logo-directory-secondary" d="M351.2 29.6q-2.55 0-4.5-1.8c-1.2-1.2-1.9-2.6-1.9-4.2s.6-3.1 1.9-4.2q1.8-1.8 4.5-1.8 2.55 0 4.5 1.8c1.2 1.2 1.9 2.6 1.9 4.2s-.6 3-1.9 4.2-2.7 1.8-4.5 1.8m-4.9 59V37.5h10v51.1zm37.1 1.1c-5 0-9.2-1.1-12.8-3.4s-6.3-5.4-8.2-9.4-2.9-8.6-2.9-13.6c0-5.2 1-9.8 2.9-13.7 2-4 4.7-7.1 8.3-9.4s7.8-3.4 12.6-3.4c3.9 0 7.4.7 10.4 2.2s5.5 3.4 7.4 6 3 5.6 3.4 9.1h-9.7c-.5-2.4-1.8-4.5-3.7-6.2s-4.5-2.6-7.6-2.6c-2.8 0-5.2.7-7.3 2.2s-3.7 3.5-4.9 6.2-1.7 5.9-1.7 9.5c0 3.7.6 7 1.7 9.7q1.65 4.05 4.8 6.3c2.1 1.5 4.5 2.2 7.4 2.2 1.9 0 3.6-.4 5.2-1.1 1.5-.7 2.9-1.7 3.9-3 1.1-1.3 1.8-2.9 2.2-4.7h9.7c-.4 3.3-1.4 6.3-3.2 8.9s-4.2 4.7-7.2 6.2c-3.1 1.2-6.6 2-10.7 2M450 49.4q-3-6-8.4-9.3T429 36.8t-12.6 3.3-8.4 9.3c-2 3.9-3 8.6-3 13.9 0 5.2 0 7.8 3 13.8q3 6 8.4 9.3t12.6 3.3 12.6-3.3c3.6-2.2 5.4-3.5 8.4-9.3q3-5.85 3-13.8c0-7.95-1-9.9-3-13.9m-8.6 22.8c-1 2.8-2.6 5-4.6 6.6-2.1 1.7-4.7 2.5-7.8 2.5-3 0-5.7-.8-7.8-2.5s-3.6-3.9-4.6-6.6c-1-2.8-1.5-5.8-1.5-9.1q0-4.8 1.5-9c1-2.7 2.5-4.9 4.6-6.6s4.7-2.5 7.8-2.5c3.2 0 5.7.8 7.8 2.5 2.1 1.6 3.6 3.8 4.6 6.6q1.5 4.05 1.5 9c0 3.3-.5 6.3-1.5 9.1m24.8-14v30.4h-10V37.5h9.6v8.4h.6c1.2-2.7 3-4.9 5.6-6.6 2.5-1.6 5.7-2.5 9.6-2.5 3.5 0 6.6.7 9.2 2.2s4.7 3.6 6.1 6.5 2.2 6.4 2.2 10.7v32.6h-10V57.3c0-3.7-1-6.6-2.9-8.7s-4.6-3.2-8-3.2c-2.3 0-4.4.5-6.2 1.5s-3.2 2.5-4.2 4.4c-1.1 2-1.6 4.2-1.6 6.9m76.7-8.2-9.1 1.6q-.6-1.8-1.8-3.3c-.8-1-1.9-1.9-3.3-2.6s-3.1-1-5.2-1c-2.8 0-5.2.6-7.1 1.9s-2.8 2.9-2.8 4.9c0 1.7.6 3.1 1.9 4.1s3.3 1.9 6.2 2.6l8.2 1.9c4.7 1.1 8.2 2.8 10.6 5s3.5 5.2 3.5 8.9c0 3.1-.9 5.8-2.7 8.2s-4.2 4.3-7.4 5.6c-3.2 1.4-6.8 2-10.9 2-5.7 0-10.4-1.2-14-3.7s-5.9-6-6.7-10.5l9.7-1.5c.6 2.5 1.8 4.4 3.7 5.7s4.3 1.9 7.3 1.9c3.3 0 5.9-.7 7.9-2.1s2.9-3 2.9-5c0-1.6-.6-3-1.8-4-1.2-1.1-3-1.9-5.5-2.5l-8.7-1.9c-4.8-1.1-8.3-2.8-10.6-5.2s-3.4-5.4-3.4-9.1c0-3 .8-5.7 2.5-8s4-4.1 7-5.3c3-1.3 6.4-1.9 10.3-1.9 5.5 0 9.9 1.2 13 3.6 3.2 2.5 5.3 5.7 6.3 9.7" style="fill:#315dd4"/></svg>