<?xml version="1.0" encoding="utf-8"?>
<!-- Generator: Adobe Illustrator 28.2.0, SVG Export Plug-In . SVG Version: 6.00 Build 0)  -->
<svg version="1.1" id="Layer_1" xmlns="http://www.w3.org/2000/svg" xmlns:xlink="http://www.w3.org/1999/xlink" x="0px" y="0px"
	 viewBox="0 0 544 109" style="enable-background:new 0 0 544 109;" xml:space="preserve">
<style type="text/css">
	.st0{opacity:0.2;fill:#FFFFFF;enable-background:new    ;}
	.st1{fill:#FFFFFF;}
	.st2{fill:#315DD4;}
</style>
<path class="st0" d="M215.6,88.9c-4.8,0-9.1-1.2-12.8-3.7c-3.7-2.4-6.6-5.8-8.6-10.2c-2.1-4.3-3.1-9.3-3.1-14.8c0-5.7,1-10.7,3.1-15
	s5-7.7,8.6-10.2c3.7-2.4,7.9-3.7,12.8-3.7c4.8,0,9.1,1.2,12.7,3.7c3.7,2.4,6.5,5.8,8.6,10.2s3.1,9.4,3.1,15s-1,10.6-3.1,14.8
	c-2.1,4.3-5,7.7-8.6,10.2C224.6,87.7,220.3,88.9,215.6,88.9 M215.6,83.1c3.9,0,7.2-1,9.8-3.1c2.7-2.1,4.7-4.9,6.1-8.3
	c1.4-3.5,2.1-7.3,2.1-11.4c0-4.2-0.7-8-2.1-11.5s-3.4-6.3-6.1-8.4s-6-3.1-9.8-3.1c-3.9,0-7.1,1.1-9.8,3.2s-4.7,4.9-6.1,8.4
	s-2.1,7.3-2.1,11.5c0,4.1,0.7,7.9,2.1,11.4c1.4,3.5,3.4,6.3,6.1,8.3C208.5,82,211.7,83.1,215.6,83.1"/>
<path class="st1" d="M37.3,63.6c2.3,2.4,3.5,5.5,3.5,9.2c0,3.1-0.9,5.9-2.6,8.4s-4.3,4.4-7.3,5.8c-3.1,1.4-6.7,2.1-10.8,2.1
	c-5.4,0-9.9-1.2-13.3-3.7S1,79.2,0,74.6l6.2-1.5c0.8,3.3,2.3,5.8,4.7,7.5s5.4,2.5,9.3,2.5c4.3,0,7.7-1,10.3-2.9
	c2.6-1.9,3.9-4.3,3.9-7.2c0-4.6-3-7.6-9.1-9.1l-9.1-2.2c-4.8-1.2-8.4-3-10.8-5.5C3,53.9,1.8,50.8,1.8,47c0-3.1,0.8-5.8,2.5-8.1
	c1.7-2.4,4-4.2,6.9-5.5s6.2-2,10-2c5.1,0,9.2,1.2,12.3,3.5s5.2,5.5,6.6,9.5l-6,1.6c-0.9-2.5-2.3-4.6-4.3-6.4c-2-1.7-4.9-2.6-8.6-2.6
	c-3.8,0-6.8,0.9-9.3,2.7c-2.4,1.8-3.6,4.1-3.6,6.9c0,2.4,0.8,4.3,2.5,5.8c1.6,1.5,4.2,2.7,7.6,3.6l8.4,2
	C31.4,59.3,34.9,61.1,37.3,63.6 M94.4,59c0-4.8-0.6-8.9-1.9-12.4c-1.2-3.4-2.9-6.2-5-8.2c-2.2-2.3-4.8-4-7.6-5.1s-5.7-1.7-8.7-1.7
	c-4.8,0-9,1.2-12.7,3.7c-3.6,2.5-6.5,6-8.5,10.3c-2.1,4.2-3.1,9.3-3.1,14.8s1,10.5,3.1,14.8c2,4.4,5,7.7,8.7,10.1
	c3.7,2.5,8.2,3.7,13.4,3.7c3.6,0,6.9-0.6,9.8-1.8c2.9-1.2,5.3-2.8,7.2-4.8c1.9-2,3.3-4.2,4.2-6.5l-6.1-2c-0.7,1.7-1.7,3.2-3.1,4.6
	c-1.3,1.4-3,2.6-5,3.4c-2,0.8-4.3,1.2-6.9,1.2c-3.8,0-7.2-0.9-10-2.7c-2.9-1.8-5.1-4.4-6.6-7.7c-1.4-3-2.2-6.6-2.3-10.7h41.1
	L94.4,59z M53.3,56.3c0.2-3.2,0.9-6.1,2-8.8c1.5-3.1,3.6-5.6,6.3-7.5c2.7-1.9,5.8-2.8,9.4-2.8s6.6,0.9,9.2,2.8s4.5,4.4,5.9,7.6
	c1.1,2.6,1.8,5.5,2,8.7H53.3z M103.2,87.7h6.4v-74h-6.4V87.7z M140.1,10.3c-2.5,0-4.9,0.5-7.1,1.6s-4.1,2.6-5.5,4.7
	s-2.1,4.6-2.1,7.6v8.1h-8.6v5.6h8.6v50h6.4v-50h12.4v-5.6h-12.4v-6.7c0-2.9,0.8-5.2,2.3-6.8c1.6-1.6,3.7-2.4,6.5-2.4
	c1.1,0,2,0.1,2.7,0.3c0.7,0.2,1.3,0.4,1.8,0.6l1.9-5.6c-0.6-0.3-1.5-0.6-2.6-0.9C143.2,10.4,141.8,10.3,140.1,10.3 M185.2,33.8
	c-2.9-1.5-6.2-2.3-9.9-2.3c-4.2,0-7.7,0.9-10.4,2.6s-4.7,4-6,6.9h-0.6V13.7H152v74h6.4V53c0-3.3,0.7-6.1,2-8.4s3.2-4.2,5.5-5.4
	c2.3-1.3,4.9-1.9,7.9-1.9c4.3,0,7.8,1.3,10.4,4s3.9,6.3,3.9,10.9v35.5h6.5V51.8c0-4.4-0.8-8.2-2.4-11.2
	C190.3,37.6,188.1,35.3,185.2,33.8 M261,58.2l-8.4-2c-3.5-0.9-6-2-7.6-3.6c-1.6-1.5-2.5-3.4-2.5-5.8c0-2.8,1.2-5.1,3.6-6.9
	c2.4-1.8,5.5-2.7,9.3-2.7c3.8,0,6.6,0.9,8.6,2.6s3.4,3.9,4.3,6.4l5.9-1.6c-1.3-4-3.5-7.2-6.6-9.5s-7.1-3.5-12.3-3.5
	c-3.7,0-7,0.7-10,2c-2.9,1.3-5.2,3.2-6.9,5.5c-1.7,2.4-2.5,5.1-2.5,8.1c0,3.7,1.2,6.8,3.5,9.3s5.9,4.3,10.8,5.5l9.1,2.2
	c6.1,1.5,9.1,4.5,9.1,9.1c0,2.9-1.3,5.2-3.9,7.2c-2.6,1.9-6,2.9-10.3,2.9c-3.8,0-6.9-0.8-9.3-2.5s-3.9-4.2-4.7-7.5l-6.2,1.5
	c1,4.6,3.3,8.2,6.8,10.6c3.5,2.5,8,3.7,13.3,3.7c4.1,0,7.7-0.7,10.8-2.1c3.1-1.4,5.5-3.3,7.2-5.8s2.6-5.2,2.6-8.4
	c0-3.7-1.2-6.8-3.5-9.2C269,61.3,265.6,59.3,261,58.2 M304.1,82.1c-0.6,0.1-1.2,0.1-1.8,0.1c-2.7,0-4.7-0.8-6.2-2.3
	s-2.2-3.8-2.2-6.8V37.8h11.8v-5.6H294V18.9h-6.4V32h-8.3v5.6h8.3v37.1c0,4.1,1.4,7.4,4.1,10c2.7,2.5,6.1,3.8,10.3,3.8
	c1.1,0,2.1-0.1,3.1-0.2c1-0.2,1.9-0.4,2.6-0.7l-1.4-5.8C305.3,81.9,304.7,82.1,304.1,82.1 M333.3,10.2l-23.8,88.7h6.1l23.8-88.7
	H333.3z M215.4,89.3c-1.4,0-2.7-0.5-3.7-1.5s-1.5-2.3-1.5-3.7s0.5-2.7,1.5-3.7s2.3-1.5,3.7-1.5c1.5,0,2.7,0.5,3.7,1.5
	s1.5,2.3,1.5,3.7s-0.5,2.7-1.5,3.7S216.8,89.3,215.4,89.3"/>
<path class="st2" d="M351.2,29.6c-1.7,0-3.2-0.6-4.5-1.8c-1.2-1.2-1.9-2.6-1.9-4.2s0.6-3.1,1.9-4.2c1.2-1.2,2.7-1.8,4.5-1.8
	c1.7,0,3.2,0.6,4.5,1.8c1.2,1.2,1.9,2.6,1.9,4.2s-0.6,3-1.9,4.2S353,29.6,351.2,29.6 M346.3,88.6V37.5h10v51.1L346.3,88.6z
	 M383.4,89.7c-5,0-9.2-1.1-12.8-3.4s-6.3-5.4-8.2-9.4s-2.9-8.6-2.9-13.6c0-5.2,1-9.8,2.9-13.7c2-4,4.7-7.1,8.3-9.4s7.8-3.4,12.6-3.4
	c3.9,0,7.4,0.7,10.4,2.2s5.5,3.4,7.4,6s3,5.6,3.4,9.1h-9.7c-0.5-2.4-1.8-4.5-3.7-6.2s-4.5-2.6-7.6-2.6c-2.8,0-5.2,0.7-7.3,2.2
	s-3.7,3.5-4.9,6.2s-1.7,5.9-1.7,9.5c0,3.7,0.6,7,1.7,9.7c1.1,2.7,2.7,4.8,4.8,6.3c2.1,1.5,4.5,2.2,7.4,2.2c1.9,0,3.6-0.4,5.2-1.1
	c1.5-0.7,2.9-1.7,3.9-3c1.1-1.3,1.8-2.9,2.2-4.7h9.7c-0.4,3.3-1.4,6.3-3.2,8.9s-4.2,4.7-7.2,6.2C391,88.9,387.5,89.7,383.4,89.7
	 M450,49.4c-2-4-4.8-7.1-8.4-9.3c-3.6-2.2-7.8-3.3-12.6-3.3c-4.8,0-9,1.1-12.6,3.3c-3.6,2.2-6.4,5.3-8.4,9.3c-2,3.9-3,8.6-3,13.9
	c0,5.2,0,7.8,3,13.8c2,4,4.8,7.1,8.4,9.3c3.6,2.2,7.8,3.3,12.6,3.3s9-1.1,12.6-3.3c3.6-2.2,5.4-3.5,8.4-9.3c2-3.9,3-8.5,3-13.8
	C453,55.3,452,53.4,450,49.4 M441.4,72.2c-1,2.8-2.6,5-4.6,6.6c-2.1,1.7-4.7,2.5-7.8,2.5c-3,0-5.7-0.8-7.8-2.5s-3.6-3.9-4.6-6.6
	c-1-2.8-1.5-5.8-1.5-9.1c0-3.2,0.5-6.2,1.5-9c1-2.7,2.5-4.9,4.6-6.6s4.7-2.5,7.8-2.5c3.2,0,5.7,0.8,7.8,2.5c2.1,1.6,3.6,3.8,4.6,6.6
	c1,2.7,1.5,5.7,1.5,9C442.9,66.4,442.4,69.4,441.4,72.2 M466.2,58.2v30.4h-10V37.5h9.6v8.4h0.6c1.2-2.7,3-4.9,5.6-6.6
	c2.5-1.6,5.7-2.5,9.6-2.5c3.5,0,6.6,0.7,9.2,2.2s4.7,3.6,6.1,6.5s2.2,6.4,2.2,10.7v32.6h-10V57.3c0-3.7-1-6.6-2.9-8.7
	s-4.6-3.2-8-3.2c-2.3,0-4.4,0.5-6.2,1.5s-3.2,2.5-4.2,4.4C466.7,53.3,466.2,55.5,466.2,58.2 M542.9,50l-9.1,1.6
	c-0.4-1.2-1-2.3-1.8-3.3s-1.9-1.9-3.3-2.6s-3.1-1-5.2-1c-2.8,0-5.2,0.6-7.1,1.9s-2.8,2.9-2.8,4.9c0,1.7,0.6,3.1,1.9,4.1
	s3.3,1.9,6.2,2.6l8.2,1.9c4.7,1.1,8.2,2.8,10.6,5s3.5,5.2,3.5,8.9c0,3.1-0.9,5.8-2.7,8.2s-4.2,4.3-7.4,5.6c-3.2,1.4-6.8,2-10.9,2
	c-5.7,0-10.4-1.2-14-3.7s-5.9-6-6.7-10.5l9.7-1.5c0.6,2.5,1.8,4.4,3.7,5.7s4.3,1.9,7.3,1.9c3.3,0,5.9-0.7,7.9-2.1s2.9-3,2.9-5
	c0-1.6-0.6-3-1.8-4c-1.2-1.1-3-1.9-5.5-2.5l-8.7-1.9c-4.8-1.1-8.3-2.8-10.6-5.2s-3.4-5.4-3.4-9.1c0-3,0.8-5.7,2.5-8s4-4.1,7-5.3
	c3-1.3,6.4-1.9,10.3-1.9c5.5,0,9.9,1.2,13,3.6C539.8,42.8,541.9,46,542.9,50"/>
</svg>
