<?xml version="1.0" encoding="utf-8"?>
<!-- Generator: Adobe Illustrator 28.2.0, SVG Export Plug-In . SVG Version: 6.00 Build 0)  -->
<svg version="1.1" id="Layer_1" xmlns="http://www.w3.org/2000/svg" xmlns:xlink="http://www.w3.org/1999/xlink" x="0px" y="0px"
	 viewBox="0 0 323 87" style="enable-background:new 0 0 323 87;" xml:space="preserve">
<style type="text/css">
	.st0{opacity:0.19;enable-background:new    ;}
	.st1{fill:#222323;}
</style>
<path class="st0" d="M226.9,84.6c-5,0-9.5-1.3-13.4-3.8s-6.9-6.1-9.1-10.6c-2.2-4.5-3.3-9.8-3.3-15.6c0-6,1.1-11.2,3.3-15.8
	c2.2-4.5,5.2-8.1,9.1-10.6s8.3-3.8,13.4-3.8c5,0,9.5,1.3,13.3,3.8c3.8,2.6,6.9,6.1,9.1,10.6s3.3,9.8,3.3,15.8
	c0,5.9-1.1,11.1-3.3,15.6s-5.2,8.1-9.1,10.6S232,84.6,226.9,84.6z M226.9,78.4c4.1,0,7.5-1.1,10.3-3.3c2.8-2.2,4.9-5.1,6.4-8.7
	c1.5-3.7,2.2-7.6,2.2-12s-0.7-8.4-2.2-12.1c-1.5-3.7-3.6-6.6-6.4-8.8c-2.8-2.2-6.2-3.3-10.3-3.3c-4,0-7.5,1.1-10.3,3.3
	s-4.9,5.1-6.4,8.8c-1.5,3.6-2.2,7.6-2.2,12c0,4.3,0.7,8.3,2.2,12c1.5,3.7,3.6,6.6,6.4,8.7C219.5,77.4,222.9,78.4,226.9,78.4z"/>
<path class="st1" d="M99.2,53.3c0-5-0.7-9.3-2-13s-3.1-6.7-5.5-9c-2.4-2.4-5-4.1-8-5.3s-6-1.7-9.1-1.7c-5,0-9.5,1.3-13.3,3.9
	c-3.8,2.6-6.8,6.2-9,10.8c-2.1,4.6-3.2,9.8-3.2,15.7c0,5.9,1.1,11.1,3.2,15.6c2.2,4.5,5.2,8.1,9.2,10.6c4,2.6,8.7,3.8,14.1,3.8
	c3.9,0,7.3-0.6,10.3-1.9s5.5-2.9,7.5-5c2-2.1,3.5-4.3,4.4-6.8l-6.4-2.1c-0.7,1.7-1.8,3.3-3.2,4.8c-1.4,1.5-3.2,2.7-5.3,3.5
	c-2.1,0.9-4.5,1.3-7.3,1.3c-4,0-7.5-1-10.5-2.9c-3-1.9-5.3-4.6-6.9-8.1c-1.5-3.2-2.3-7-2.4-11.2h43.4V53.3z M55.9,50.4
	c0.2-3.4,1-6.4,2.3-9.2c1.5-3.3,3.7-5.9,6.6-7.8c2.8-2,6.1-2.9,9.8-2.9c3.8,0,7,1,9.7,2.9c2.7,1.9,4.7,4.6,6.2,7.9
	c1.2,2.7,1.9,5.8,2.1,9.1H55.9z"/>
<path class="st1" d="M39.1,57.9c2.5,2.6,3.7,5.8,3.7,9.7c0,3.3-0.9,6.2-2.7,8.8c-1.8,2.6-4.4,4.6-7.6,6.1c-3.2,1.5-7,2.2-11.3,2.2
	c-5.7,0-10.4-1.3-14.1-3.9C3.4,78.1,1,74.4,0,69.6L6.5,68c0.8,3.4,2.4,6.1,4.9,7.8c2.5,1.8,5.7,2.7,9.7,2.7c4.5,0,8-1,10.8-3
	c2.7-2,4.1-4.5,4.1-7.5c0-4.8-3.2-8-9.6-9.6l-9.5-2.3C11.8,54.9,8,53,5.6,50.4s-3.7-5.9-3.7-9.8c0-3.2,0.9-6,2.6-8.5
	c1.8-2.5,4.2-4.4,7.2-5.8c3.1-1.4,6.5-2.1,10.4-2.1c5.4,0,9.6,1.2,12.8,3.7s5.5,5.8,6.9,10l-6.2,1.7c-0.9-2.6-2.4-4.8-4.5-6.7
	C29,31.1,26,30.2,22,30.2c-3.9,0-7.2,0.9-9.7,2.8c-2.5,1.9-3.8,4.3-3.8,7.3c0,2.5,0.9,4.5,2.6,6.1s4.4,2.8,8,3.7l8.8,2.1
	C33,53.5,36.7,55.4,39.1,57.9z"/>
<rect x="108.4" y="5.6" class="st1" width="6.7" height="77.8"/>
<path class="st1" d="M285.1,57.9c2.5,2.6,3.7,5.8,3.7,9.7c0,3.3-0.9,6.2-2.7,8.8c-1.8,2.6-4.4,4.6-7.6,6.1s-7,2.2-11.3,2.2
	c-5.7,0-10.4-1.3-14.1-3.9c-3.7-2.6-6.1-6.3-7.1-11.1l6.5-1.6c0.8,3.4,2.4,6.1,4.9,7.8c2.5,1.8,5.7,2.7,9.7,2.7c4.5,0,8-1,10.8-3
	c2.7-2,4.1-4.5,4.1-7.5c0-4.8-3.2-8-9.6-9.6l-9.5-2.3c-5.1-1.2-8.8-3.1-11.3-5.7c-2.4-2.6-3.7-5.9-3.7-9.8c0-3.2,0.9-6,2.6-8.5
	c1.8-2.5,4.2-4.4,7.2-5.8c3.1-1.4,6.5-2.1,10.4-2.1c5.4,0,9.6,1.2,12.8,3.7c3.2,2.5,5.5,5.8,6.9,10l-6.2,1.7
	c-0.9-2.6-2.4-4.8-4.5-6.7c-2.1-1.8-5.1-2.7-9.1-2.7c-3.9,0-7.2,0.9-9.7,2.8c-2.5,1.9-3.8,4.3-3.8,7.3c0,2.5,0.9,4.5,2.6,6.1
	c1.7,1.6,4.4,2.8,8,3.7l8.8,2.1C279,53.5,282.7,55.4,285.1,57.9z"/>
<path class="st1" d="M230.7,75.7c1.1,1.1,1.6,2.4,1.6,3.9s-0.5,2.8-1.6,3.9s-2.4,1.6-3.9,1.6s-2.8-0.5-3.9-1.6
	c-1.1-1.1-1.6-2.4-1.6-3.9s0.5-2.8,1.6-3.9s2.4-1.6,3.9-1.6C228.4,74.1,229.6,74.6,230.7,75.7z"/>
<path class="st1" d="M151.6,2.4c1.2,0.3,2.1,0.6,2.8,0.9l-2,5.9c-0.5-0.2-1.1-0.4-1.9-0.6c-0.7-0.2-1.6-0.3-2.8-0.3
	c-2.9,0-5.2,0.8-6.8,2.5s-2.5,4-2.5,7.1v7h13v5.9h-13v52.5h-6.7V30.9h-9V25h9v-8.5c0-3.2,0.7-5.8,2.2-8s3.4-3.8,5.7-4.9
	s4.8-1.7,7.4-1.7C149,2,150.5,2.1,151.6,2.4z"/>
<path class="st1" d="M323,83.2c-0.8,0.3-1.7,0.6-2.8,0.7c-1,0.2-2.1,0.3-3.2,0.3c-4.3,0-7.9-1.3-10.8-4s-4.3-6.2-4.3-10.5V30.9h-8.7
	V25h8.7V11.1h6.7V25H321v5.9h-12.4v37.2c0,3.2,0.8,5.5,2.3,7.1c1.6,1.6,3.7,2.4,6.5,2.4c0.6,0,1.3,0,1.9-0.1s1.3-0.2,2.1-0.4
	L323,83.2z"/>
<path class="st1" d="M201.6,33.9c1.7,3.2,2.5,7.1,2.5,11.7v37.7h-6.8V46c0-4.8-1.3-8.6-4-11.4c-2.7-2.8-6.3-4.2-10.9-4.2
	c-3.1,0-5.9,0.7-8.3,2c-2.4,1.3-4.3,3.2-5.7,5.7s-2.1,5.4-2.1,8.8v36.4h-6.7V5.6h6.7v28.7h0.7c1.4-3,3.5-5.4,6.3-7.3
	c2.9-1.8,6.5-2.7,10.9-2.7c3.9,0,7.4,0.8,10.4,2.4C197.5,28.3,199.9,30.7,201.6,33.9z"/>
</svg>
