<?xml version="1.0" encoding="utf-8"?>
<!-- Generator: Adobe Illustrator 28.2.0, SVG Export Plug-In . SVG Version: 6.00 Build 0)  -->
<svg version="1.1" id="Layer_1" xmlns="http://www.w3.org/2000/svg" xmlns:xlink="http://www.w3.org/1999/xlink" x="0px" y="0px"
	 viewBox="0 0 16 16" style="enable-background:new 0 0 16 16;" xml:space="preserve">
<style type="text/css">
	.st0{fill:#1B1F23;}
</style>
<path class="st0" d="M1.6,8.4v3.3c0,0.5-0.4,0.8-0.8,0.8c-0.4,0-0.8-0.4-0.8-0.8V8.4C0,8,0.4,7.6,0.8,7.6C1.3,7.6,1.6,8,1.6,8.4z
	 M15.2,7.7c-0.4,0-0.8,0.4-0.8,0.8v3.3c0,0.4,0.4,0.8,0.8,0.8s0.8-0.4,0.8-0.8V8.5C16,8,15.6,7.7,15.2,7.7z M11.1,4.6H8.8V3.5
	c0.5-0.3,0.8-0.8,0.8-1.4c0-0.9-0.7-1.6-1.6-1.6S6.3,1.2,6.3,2.1c0,0.6,0.3,1.1,0.8,1.4v1.1H4.8c-1.3,0-2.4,1.1-2.4,2.4v6
	c0,1.3,1.1,2.4,2.4,2.4h6.3c1.3,0,2.4-1.1,2.4-2.4v-6C13.6,5.7,12.5,4.6,11.1,4.6z M5.7,9.9C5,9.9,4.5,9.3,4.5,8.6
	c0-0.7,0.6-1.3,1.3-1.3C6.4,7.3,7,7.9,7,8.6C7,9.3,6.4,9.9,5.7,9.9z M10.3,9.9C9.6,9.9,9,9.3,9,8.6c0-0.7,0.6-1.3,1.3-1.3
	c0.7,0,1.3,0.6,1.3,1.3C11.5,9.3,11,9.9,10.3,9.9z"/>
</svg>
