<?xml version="1.0" encoding="utf-8"?>
<!-- Generator: Adobe Illustrator 28.2.0, SVG Export Plug-In . SVG Version: 6.00 Build 0)  -->
<svg version="1.1" id="Layer_1" xmlns="http://www.w3.org/2000/svg" xmlns:xlink="http://www.w3.org/1999/xlink" x="0px" y="0px"
	 viewBox="0 0 16 16" style="enable-background:new 0 0 16 16;" xml:space="preserve">
<style type="text/css">
	.st0{fill:#1B1F23;}
</style>
<path class="st0" d="M14.1,5.4c-0.1,0.1-1.7,1-1.7,3c0,2.4,2.1,3.2,2.1,3.3c0,0.1-0.3,1.2-1.1,2.3c-0.7,1-1.4,2-2.5,2
	s-1.4-0.6-2.6-0.6S6.6,16,5.6,16s-1.7-0.9-2.5-2c-0.9-1.3-1.7-3.4-1.7-5.3c0-3.1,2-4.7,4-4.7c1.1,0,1.9,0.7,2.6,0.7
	c0.6,0,1.6-0.7,2.8-0.7C11.4,3.9,13,3.9,14.1,5.4 M10.4,2.6c0.5-0.6,0.9-1.4,0.9-2.2c0-0.1,0-0.2-0.1-0.3c-0.8,0.1-1.8,0.5-2.3,1.2
	C8.3,1.8,7.9,2.6,7.9,3.4c0,0.1,0,0.3,0.1,0.3s0.2,0,0.2,0C8.9,3.7,9.8,3.2,10.4,2.6"/>
</svg>
