<?xml version="1.0" encoding="utf-8"?>
<!-- Generator: Adobe Illustrator 28.2.0, SVG Export Plug-In . SVG Version: 6.00 Build 0)  -->
<svg version="1.1" id="Layer_1" xmlns="http://www.w3.org/2000/svg" xmlns:xlink="http://www.w3.org/1999/xlink" x="0px" y="0px"
	 viewBox="0 0 30 30" style="enable-background:new 0 0 30 30;" xml:space="preserve">
<style type="text/css">
	.st0{fill:#1B1F23;}
</style>
<path class="st0" d="M26.4,10.2c-0.2,0.1-3.2,1.9-3.2,5.7c0,4.5,3.9,6,4,6.1c0,0.1-0.6,2.2-2.1,4.3c-1.3,1.8-2.6,3.7-4.7,3.7
	s-2.6-1.2-4.9-1.2c-2.3,0-3.1,1.2-5,1.2s-3.2-1.7-4.7-3.8c-1.7-2.5-3.1-6.3-3.1-9.9c0-5.8,3.8-8.9,7.5-8.9c2,0,3.6,1.3,4.9,1.3
	c1.2,0,3-1.4,5.3-1.4C21.3,7.3,24.4,7.3,26.4,10.2 M19.4,4.8C20.3,3.7,21,2.1,21,0.6c0-0.2,0-0.4-0.1-0.6c-1.5,0.1-3.3,1-4.4,2.3
	c-0.9,1-1.7,2.5-1.7,4.1c0,0.2,0,0.5,0.1,0.5c0.1,0,0.3,0,0.4,0C16.7,6.9,18.4,6,19.4,4.8"/>
</svg>
