<?xml version="1.0" encoding="utf-8"?>
<!-- Generator: Adobe Illustrator 28.2.0, SVG Export Plug-In . SVG Version: 6.00 Build 0)  -->
<svg version="1.1"
	 id="svg6989" xmlns:rdf="http://www.w3.org/1999/02/22-rdf-syntax-ns#" xmlns:svg="http://www.w3.org/2000/svg" xmlns:dc="http://purl.org/dc/elements/1.1/" xmlns:inkscape="http://www.inkscape.org/namespaces/inkscape" xmlns:cc="http://creativecommons.org/ns#" xmlns:sodipodi="http://sodipodi.sourceforge.net/DTD/sodipodi-0.dtd" inkscape:export-filename="/home/robert/Documents/Codeberg/Logo-Kit/svg/Codeberg-logo_stacked.png" inkscape:export-xdpi="191.92" inkscape:export-ydpi="191.92" inkscape:version="1.0 (b51213c273, 2020-08-10)"
	 xmlns="http://www.w3.org/2000/svg" xmlns:xlink="http://www.w3.org/1999/xlink" x="0px" y="0px" viewBox="0 0 16 16"
	 style="enable-background:new 0 0 16 16;" xml:space="preserve">
<style type="text/css">
	.st0{opacity:0.5;fill:#1B1F23;enable-background:new    ;}
	.st1{fill:#1B1F23;}
</style>
<g id="g6933">
	<path id="path6733" class="st0" d="M8.1,4.1C8.1,4.1,8.1,4.1,8.1,4.1C8.1,4.1,8.1,4.1,8.1,4.1l3,11.6c1.5-0.6,2.7-1.7,3.6-3.1
		L8.1,4.1C8.2,4.1,8.2,4.1,8.1,4.1z"/>
	<path id="circle6810" class="st1" d="M8,0.3c-4.4,0-8,3.6-8,8c0,1.5,0.4,3,1.2,4.2L7.9,4c0,0,0.1-0.1,0.2,0c0,0,0,0,0,0l6.7,8.6
		c0.8-1.3,1.2-2.7,1.2-4.2C16,3.9,12.4,0.3,8,0.3L8,0.3C8,0.3,8,0.3,8,0.3L8,0.3z"/>
</g>
</svg>
