<?xml version="1.0" encoding="utf-8"?>
<!-- Generator: Adobe Illustrator 28.2.0, SVG Export Plug-In . SVG Version: 6.00 Build 0)  -->
<svg version="1.1" id="Layer_1" xmlns="http://www.w3.org/2000/svg" xmlns:xlink="http://www.w3.org/1999/xlink" x="0px" y="0px"
	 viewBox="0 0 16 16" style="enable-background:new 0 0 16 16;" xml:space="preserve">
<style type="text/css">
	.st0{fill:#1B1F23;}
</style>
<path class="st0" d="M11.2,5.2c-0.7,0-1.4,0.4-1.7,1H8.6c-1.1,0-2.1,0.4-2.8,0.9V5.7c0-1.6,1.3-2.8,2.8-2.8h0.9c0.3,0.6,1,1,1.7,1
	c1.1,0,1.9-0.9,1.9-1.9c0-1.1-0.9-1.9-1.9-1.9c-0.7,0-1.4,0.4-1.7,1H8.6C6,1,3.9,3.1,3.9,5.7v5.2v1.5c-0.6,0.3-1,1-1,1.7
	c0,1.1,0.9,1.9,1.9,1.9c1.1,0,1.9-0.9,1.9-1.9c0-0.7-0.4-1.4-1-1.7v-1.5C5.8,9.3,7,8,8.6,8h0.9c0.3,0.6,1,1,1.7,1
	c1.1,0,1.9-0.9,1.9-1.9C13.1,6,12.2,5.2,11.2,5.2z M11.2,1.1c0.4,0,0.8,0.4,0.8,0.8c0,0.4-0.4,0.8-0.8,0.8c-0.4,0-0.8-0.4-0.8-0.8
	C10.4,1.5,10.7,1.1,11.2,1.1z M4.8,14.9c-0.4,0-0.8-0.4-0.8-0.8c0-0.4,0.4-0.8,0.8-0.8s0.8,0.4,0.8,0.8C5.6,14.5,5.3,14.9,4.8,14.9z
	 M11.2,7.9c-0.4,0-0.8-0.4-0.8-0.8c0-0.4,0.4-0.8,0.8-0.8c0.4,0,0.8,0.4,0.8,0.8C12,7.5,11.6,7.9,11.2,7.9z"/>
</svg>
