<?xml version="1.0" encoding="utf-8"?>
<!-- Generator: Adobe Illustrator 28.2.0, SVG Export Plug-In . SVG Version: 6.00 Build 0)  -->
<svg version="1.1" id="main_outline" xmlns="http://www.w3.org/2000/svg" xmlns:xlink="http://www.w3.org/1999/xlink" x="0px"
	 y="0px" viewBox="0 0 16 16" style="enable-background:new 0 0 16 16;" xml:space="preserve">
<style type="text/css">
	.st0{fill:#1B1F23;}
</style>
<path class="st0" d="M15.7,3.2c-0.1-0.1-0.2-0.1-0.2-0.1s-3,0.2-4.5,0.2c-0.3,0-0.7,0-1,0c0,1,0,2,0,3C9.8,6.3,9.7,6.2,9.5,6.1
	c0-0.9,0-2.8,0-2.8c-0.7,0-2.3-0.1-2.3-0.1S3.6,3.1,3.3,3.1C3,3.1,2.7,3,2.3,3.1C2,3.2,1.4,3.3,0.9,3.8c-1.1,1-0.9,2.7-0.8,2.9
	C0.1,7,0.2,7.8,0.9,8.6C2,10,4.5,10,4.5,10s0.3,0.7,0.8,1.4c0.6,0.9,1.3,1.5,1.9,1.6c1.6,0,4.8,0,4.8,0s0.3,0,0.7-0.3
	c0.4-0.2,0.7-0.6,0.7-0.6s0.3-0.4,0.8-1.2c0.2-0.3,0.3-0.5,0.4-0.7c0,0,1.4-3,1.4-5.9C15.9,3.5,15.7,3.3,15.7,3.2z M3.1,8.4
	C2.4,8.2,2.1,7.9,2.1,7.9s-0.5-0.3-0.7-1C1,5.8,1.3,5.1,1.3,5.1s0.2-0.6,1-0.7c0.4-0.1,0.8-0.1,0.8-0.1s0.2,1.5,0.4,2.4
	c0.2,0.7,0.6,2,0.6,2S3.5,8.6,3.1,8.4z M12.1,8.3c-0.1,0.4-1.3,2.8-1.3,2.8s-0.2,0.4-0.5,0.4c-0.2,0-0.3-0.1-0.3-0.1s0,0-0.2-0.1
	l-2.9-1.3c0,0-0.3-0.2-0.3-0.4C6.6,9.5,6.7,9.2,6.7,9.2l1.4-2.8c0,0,0.1-0.3,0.3-0.3c0,0,0.1,0,0.1-0.1C8.7,6,9,6.1,9,6.1l0.6,0.3
	c0,0,0,0-0.1,0C9.4,6.6,9.2,6.8,9.1,7.1C9,7.1,8.8,7.2,8.7,7.3C8.6,7.5,8.6,7.7,8.8,7.8C8.6,8.2,8.4,8.7,8.2,9.1
	C8,9.1,7.8,9.3,7.7,9.5C7.7,9.7,7.8,9.9,8,10c0.2,0.1,0.4,0.1,0.6-0.2c0.1-0.2,0.1-0.4-0.1-0.6L9.1,8c0.1,0,0.1,0,0.2,0
	c0.1,0,0.2-0.1,0.2-0.1C9.5,8,9.6,8,9.7,8.1C9.8,8.1,9.9,8.2,10,8.2l0.1,0.1c0.1,0.1,0.1,0.1,0.1,0.2c0.1,0.2-0.1,0.4-0.1,0.4
	c-0.1,0.2-0.5,1-0.5,1c-0.2,0-0.4,0.1-0.4,0.3c-0.1,0.2,0.1,0.4,0.2,0.5c0.2,0.1,0.4,0.1,0.6-0.2c0.1-0.2,0.1-0.4-0.1-0.6
	c0.1-0.1,0.1-0.2,0.2-0.3c0.1-0.3,0.3-0.8,0.3-0.8c0-0.1,0.2-0.3,0.1-0.5c-0.1-0.3-0.3-0.4-0.3-0.4C10,7.7,9.6,7.6,9.6,7.6
	s0-0.1-0.1-0.2C9.5,7.3,9.5,7.3,9.4,7.2C9.6,7,9.7,6.8,9.8,6.5l1.9,1c0,0,0.3,0.2,0.4,0.4C12.2,8.1,12.1,8.2,12.1,8.3z"/>
</svg>
