<?xml version="1.0" encoding="utf-8"?>
<!-- Generator: Adobe Illustrator 28.2.0, SVG Export Plug-In . SVG Version: 6.00 Build 0)  -->
<svg version="1.1" id="main_outline" xmlns="http://www.w3.org/2000/svg" xmlns:xlink="http://www.w3.org/1999/xlink" x="0px"
	 y="0px" viewBox="0 0 30 19" style="enable-background:new 0 0 30 19;" xml:space="preserve">
<style type="text/css">
	.st0{fill:#1B1F23;}
</style>
<g>
	<path class="st0" d="M29.4,0.6C29.3,0.4,29,0.4,29,0.4s-5.6,0.3-8.5,0.4c-0.6,0-1.3,0-1.9,0c0,1.9,0,3.7,0,5.6
		c-0.3-0.1-0.5-0.3-0.8-0.4c0-1.7,0-5.2,0-5.2c-1.4,0-4.3-0.1-4.3-0.1S6.8,0.4,6.1,0.3C5.6,0.3,5,0.2,4.2,0.4
		C3.8,0.5,2.6,0.7,1.6,1.7c-2.1,1.9-1.6,5-1.5,5.4c0.1,0.6,0.3,2.1,1.5,3.5c2.2,2.7,6.9,2.6,6.9,2.6s0.6,1.4,1.5,2.6
		c1.2,1.6,2.4,2.8,3.6,3c3,0,9,0,9,0s0.6,0,1.3-0.5c0.7-0.4,1.3-1.1,1.3-1.1s0.6-0.7,1.5-2.2c0.3-0.5,0.5-0.9,0.7-1.3
		c0,0,2.6-5.6,2.6-11C29.9,1,29.5,0.7,29.4,0.6z M5.7,10.3C4.5,9.9,4,9.4,4,9.4S3,8.8,2.6,7.5C1.8,5.4,2.5,4.1,2.5,4.1
		S2.9,3,4.3,2.7C5,2.5,5.8,2.5,5.8,2.5S6.2,5.4,6.6,7c0.3,1.4,1.2,3.7,1.2,3.7S6.5,10.6,5.7,10.3z M20.1,15.4c0,0-0.3,0.7-0.9,0.7
		c-0.3,0-0.5-0.1-0.5-0.1s0,0-0.3-0.1L13,13.4c0,0-0.5-0.3-0.6-0.7s0.1-0.9,0.1-0.9l2.6-5.3c0,0,0.2-0.5,0.6-0.6c0,0,0.1,0,0.2-0.1
		c0.4-0.1,0.9,0.1,0.9,0.1L22,8.5c0,0,0.6,0.3,0.7,0.8c0.1,0.4,0,0.7-0.1,0.8C22.4,10.8,20.1,15.4,20.1,15.4z"/>
	<path class="st0" d="M15.3,11.6c-0.4,0-0.7,0.3-0.8,0.7s0.1,0.8,0.4,1c0.4,0.2,0.8,0.1,1.1-0.3c0.2-0.3,0.2-0.8-0.1-1.1L17,9.6
		c0.1,0,0.2,0,0.3,0c0.2,0,0.3-0.2,0.3-0.2c0.2,0.1,0.4,0.2,0.6,0.3s0.4,0.2,0.6,0.3l0.1,0.1c0.1,0.1,0.2,0.1,0.2,0.3
		c0.1,0.3-0.1,0.7-0.1,0.7c-0.1,0.4-0.9,1.9-0.9,1.9c-0.4,0-0.7,0.2-0.8,0.6c-0.1,0.4,0.1,0.8,0.4,1c0.4,0.2,0.8,0.1,1.1-0.3
		c0.2-0.3,0.2-0.8-0.1-1.1c0.1-0.2,0.2-0.4,0.3-0.5c0.2-0.5,0.6-1.5,0.6-1.5c0-0.1,0.3-0.5,0.1-1c-0.1-0.5-0.6-0.8-0.6-0.8
		C18.8,9,18,8.7,18,8.7s0-0.2-0.1-0.3s-0.1-0.2-0.2-0.3c0.2-0.5,0.5-0.9,0.7-1.4c-0.2-0.1-0.4-0.2-0.6-0.3c-0.2,0.5-0.5,0.9-0.7,1.4
		c-0.3,0-0.6,0.2-0.8,0.5c-0.2,0.3-0.1,0.7,0.1,0.9C16.1,10,15.7,10.8,15.3,11.6z"/>
</g>
</svg>
