<?xml version="1.0" encoding="utf-8"?>
<!-- Generator: Adobe Illustrator 28.2.0, SVG Export Plug-In . SVG Version: 6.00 Build 0)  -->
<svg version="1.1" id="main_outline" xmlns="http://www.w3.org/2000/svg" xmlns:xlink="http://www.w3.org/1999/xlink" x="0px"
	 y="0px" viewBox="0 0 30 30" style="enable-background:new 0 0 30 30;" xml:space="preserve">
<style type="text/css">
	.st0{fill:#1B1F23;}
</style>
<g>
	<path class="st0" d="M29.4,6.1C29.3,5.9,29,5.9,29,5.9s-5.6,0.3-8.5,0.4c-0.6,0-1.3,0-1.9,0c0,1.9,0,3.7,0,5.6
		c-0.3-0.1-0.5-0.3-0.8-0.4c0-1.7,0-5.2,0-5.2c-1.4,0-4.3-0.1-4.3-0.1S6.8,5.9,6.1,5.8C5.6,5.8,5,5.7,4.2,5.9C3.8,6,2.6,6.2,1.6,7.2
		c-2.1,1.9-1.6,5-1.5,5.4c0.1,0.6,0.3,2.1,1.5,3.5c2.2,2.7,6.9,2.6,6.9,2.6s0.6,1.4,1.5,2.6c1.2,1.6,2.4,2.8,3.6,3c3,0,9,0,9,0
		s0.6,0,1.3-0.5c0.7-0.4,1.3-1.1,1.3-1.1s0.6-0.7,1.5-2.2c0.3-0.5,0.5-0.9,0.7-1.3c0,0,2.6-5.6,2.6-11C29.9,6.5,29.5,6.2,29.4,6.1z
		 M5.7,15.8C4.5,15.4,4,14.9,4,14.9S3,14.3,2.6,13c-0.8-2.1-0.1-3.4-0.1-3.4s0.4-1.1,1.8-1.4C5,8,5.8,8,5.8,8s0.4,2.9,0.8,4.5
		c0.3,1.4,1.2,3.7,1.2,3.7S6.5,16.1,5.7,15.8z M20.1,20.9c0,0-0.3,0.7-0.9,0.7c-0.3,0-0.5-0.1-0.5-0.1s0,0-0.3-0.1L13,18.9
		c0,0-0.5-0.3-0.6-0.7c-0.1-0.4,0.1-0.9,0.1-0.9l2.6-5.3c0,0,0.2-0.5,0.6-0.6c0,0,0.1,0,0.2-0.1c0.4-0.1,0.9,0.1,0.9,0.1L22,14
		c0,0,0.6,0.3,0.7,0.8c0.1,0.4,0,0.7-0.1,0.8C22.4,16.3,20.1,20.9,20.1,20.9z"/>
	<path class="st0" d="M15.3,17.1c-0.4,0-0.7,0.3-0.8,0.7c-0.1,0.4,0.1,0.8,0.4,1c0.4,0.2,0.8,0.1,1.1-0.3c0.2-0.3,0.2-0.8-0.1-1.1
		l1.1-2.3c0.1,0,0.2,0,0.3,0c0.2,0,0.3-0.2,0.3-0.2c0.2,0.1,0.4,0.2,0.6,0.3s0.4,0.2,0.6,0.3l0.1,0.1c0.1,0.1,0.2,0.1,0.2,0.3
		c0.1,0.3-0.1,0.7-0.1,0.7c-0.1,0.4-0.9,1.9-0.9,1.9c-0.4,0-0.7,0.2-0.8,0.6c-0.1,0.4,0.1,0.8,0.4,1c0.4,0.2,0.8,0.1,1.1-0.3
		c0.2-0.3,0.2-0.8-0.1-1.1c0.1-0.2,0.2-0.4,0.3-0.5c0.2-0.5,0.6-1.5,0.6-1.5c0-0.1,0.3-0.5,0.1-1c-0.1-0.5-0.6-0.8-0.6-0.8
		c-0.3-0.4-1.1-0.7-1.1-0.7s0-0.2-0.1-0.3s-0.1-0.2-0.2-0.3c0.2-0.5,0.5-0.9,0.7-1.4c-0.2-0.1-0.4-0.2-0.6-0.3
		c-0.2,0.5-0.5,0.9-0.7,1.4c-0.3,0-0.6,0.2-0.8,0.5c-0.2,0.3-0.1,0.7,0.1,0.9C16.1,15.5,15.7,16.3,15.3,17.1z"/>
</g>
</svg>
