<?xml version="1.0" encoding="utf-8"?>
<!-- Generator: Adobe Illustrator 28.2.0, SVG Export Plug-In . SVG Version: 6.00 Build 0)  -->
<svg version="1.1" id="Layer_1" xmlns="http://www.w3.org/2000/svg" xmlns:xlink="http://www.w3.org/1999/xlink" x="0px" y="0px"
	 viewBox="0 0 75 75" style="enable-background:new 0 0 75 75;" xml:space="preserve">
<style type="text/css">
	.st0{fill:#1B1F23;}
</style>
<g id="LOGO">
	<path class="st0" d="M73.8,30l-0.1-0.3L63.4,3.1c-0.2-0.5-0.6-1-1.1-1.3C61,1,59.4,1.4,58.6,2.6c-0.1,0.2-0.2,0.5-0.3,0.7
		l-6.9,21.1H23.5L16.7,3.3c-0.4-1.4-1.9-2.3-3.3-1.9c-0.2,0.1-0.5,0.2-0.7,0.3C12.2,2,11.9,2.4,11.6,3L1.4,29.7L1.3,30
		c-3,7.9-0.5,16.8,6.3,21.9l0,0L7.7,52l15.5,11.6l7.7,5.8l4.7,3.5c1.1,0.8,2.7,0.8,3.8,0l4.7-3.5l7.7-5.8l15.6-11.7l0,0
		C74.2,46.8,76.8,37.9,73.8,30z"/>
	<path class="st0" d="M73.8,30l-0.1-0.3c-5,1-9.7,3.1-13.7,6.2L37.5,52.8l14.3,10.8l15.6-11.7l0,0C74.2,46.8,76.8,37.9,73.8,30z"/>
	<path class="st0" d="M23.2,63.6l7.7,5.8l4.7,3.5c1.1,0.8,2.7,0.8,3.8,0l4.7-3.5l7.7-5.8L37.5,52.8L23.2,63.6z"/>
	<path class="st0" d="M15.1,35.9c-4.1-3-8.7-5.1-13.7-6.2L1.3,30c-3,7.9-0.5,16.8,6.3,21.9l0,0L7.7,52l15.5,11.6l14.3-10.8
		L15.1,35.9z"/>
</g>
</svg>
