<?xml version="1.0" encoding="utf-8"?>
<!-- Generator: Adobe Illustrator 28.2.0, SVG Export Plug-In . SVG Version: 6.00 Build 0)  -->
<svg version="1.1" id="Layer_1" xmlns="http://www.w3.org/2000/svg" xmlns:xlink="http://www.w3.org/1999/xlink" x="0px" y="0px"
	 viewBox="0 0 16 16" style="enable-background:new 0 0 16 16;" xml:space="preserve">
<style type="text/css">
	.st0{fill:#1B1F23;}
</style>
<path class="st0" d="M15.7,6.4L15.7,6.4l-2.2-5.7c0-0.1-0.1-0.2-0.2-0.3c-0.3-0.2-0.6-0.1-0.8,0.2c0,0,0,0.1-0.1,0.1L11,5.2H5
	L3.6,0.7C3.5,0.4,3.1,0.2,2.8,0.3c0,0-0.1,0-0.1,0.1C2.6,0.4,2.5,0.5,2.5,0.7L0.3,6.4l0,0.1c-0.6,1.7-0.1,3.6,1.3,4.7l0,0l3.3,2.5
	l1.6,1.2l1,0.7c0.2,0.2,0.6,0.2,0.8,0l1-0.7l1.6-1.2l3.3-2.5C15.8,10,16.4,8.1,15.7,6.4z"/>
</svg>
