<?xml version="1.0" encoding="utf-8"?>
<!-- Generator: Adobe Illustrator 28.2.0, SVG Export Plug-In . SVG Version: 6.00 Build 0)  -->
<svg version="1.1" id="Layer_1" xmlns="http://www.w3.org/2000/svg" xmlns:xlink="http://www.w3.org/1999/xlink" x="0px" y="0px"
	 viewBox="0 0 16 16" style="enable-background:new 0 0 16 16;" xml:space="preserve">
<style type="text/css">
	.st0{fill:#1B1F23;}
</style>
<path class="st0" d="M10.8,4.5L7.6,7.7L7.5,7.7l0,0L0.9,1.1C1.1,0.4,1.7,0,2.4,0C2.7,0,3,0.1,3.3,0.2L10.8,4.5z M15,7.3
	c-0.1-0.2-0.3-0.5-0.7-0.7l-3.2-1.8L7.9,8l1.7,1.7l1.6,1.6l3.2-1.8C15.2,9,15.5,8.1,15,7.3z M1.6,15.8C2,16,2.4,16.1,2.9,15.9
	c0.1,0,0.3-0.1,0.4-0.2l0,0l7.5-4.3L9.3,10L7.6,8.3l-6.7,6.6C1,15.3,1.3,15.6,1.6,15.8z M0.8,1.6v12.7c0,0,0,0,0,0L7.3,8L0.8,1.6
	C0.8,1.6,0.8,1.6,0.8,1.6z"/>
</svg>
