<?xml version="1.0" encoding="utf-8"?>
<!-- Generator: Adobe Illustrator 28.2.0, SVG Export Plug-In . SVG Version: 6.00 Build 0)  -->
<svg version="1.1" id="Layer_1" xmlns="http://www.w3.org/2000/svg" xmlns:xlink="http://www.w3.org/1999/xlink" x="0px" y="0px"
	 viewBox="0 0 512 512" style="enable-background:new 0 0 512 512;" xml:space="preserve">
<style type="text/css">
	.st0{fill:#1B1F23;}
</style>
<path class="st0" d="M344.9,145.1L242,246.7l-1.9-1.9l0,0L27.5,35C35.1,14.2,55,0,77.4,0c9.6,0,19.2,2.6,27.6,7.5L344.9,145.1z
	 M481.5,232.7c-4.1-7.8-11-14.6-22.2-22L357,151.9L251.4,256.1l54.8,54.7l50.4,50.3l103.1-58.6C484.9,289.2,494.7,258,481.5,232.7z
	 M51.5,505.2c12.4,6.9,26.7,8.6,40.4,4.7c4.3-1.2,8.4-2.9,12.2-5.2l0.1-0.1l240.4-136.8l-48-47.9l-54.6-54.4L27.5,477
	C31.8,489,40.2,498.9,51.5,505.2z M24.6,52.1V460c0,0.3,0,0.7,0,1l207.7-205L24.6,50.9C24.6,51.3,24.6,51.7,24.6,52.1z"/>
</svg>
