<?xml version="1.0" encoding="utf-8"?>
<!-- Generator: Adobe Illustrator 28.2.0, SVG Export Plug-In . SVG Version: 6.00 Build 0)  -->
<svg version="1.1" id="Layer_1" xmlns="http://www.w3.org/2000/svg" xmlns:xlink="http://www.w3.org/1999/xlink" x="0px" y="0px"
	 viewBox="0 0 512 512" style="enable-background:new 0 0 512 512;" xml:space="preserve">
<g>
	<g>
		<path d="M256,0C114.6,0,0,114.6,0,256s114.6,256,256,256s256-114.6,256-256S397.4,0,256,0z M172.2,41.6
			c-24.9,27.1-44.7,66.1-56.8,112H49.7C75.2,102.7,118.9,62.5,172.2,41.6z M25.6,256c0-27,5.1-52.7,13.7-76.8h70.5
			c-4.6,24.3-7.4,50-7.4,76.8s2.7,52.5,7.3,76.8H39.3C30.7,308.7,25.6,283,25.6,256z M49.7,358.4h65.7c12.1,45.9,31.8,84.9,56.8,112
			C118.9,449.5,75.2,409.3,49.7,358.4z M243.2,485.2c-43.8-8.3-81.9-58.2-101.4-126.8h101.4V485.2z M243.2,332.8H135.7
			c-4.9-24.2-7.7-50-7.7-76.8s2.8-52.6,7.7-76.8h107.5V332.8z M243.2,153.6H141.8c19.5-68.5,57.5-118.5,101.4-126.8V153.6z
			 M462.3,153.6h-65.7c-12.1-45.9-31.8-84.9-56.8-112C393.1,62.5,436.8,102.7,462.3,153.6z M268.8,26.8
			c43.8,8.3,81.9,58.2,101.4,126.8H268.8V26.8z M268.8,179.2h107.5c4.9,24.2,7.7,50,7.7,76.8s-2.8,52.6-7.7,76.8H268.8V179.2z
			 M268.8,485.2V358.4h101.4C350.7,426.9,312.6,476.9,268.8,485.2z M339.8,470.4c24.9-27.1,44.7-66.1,56.8-112h65.7
			C436.8,409.3,393.1,449.5,339.8,470.4z M402.2,332.8c4.6-24.3,7.4-50,7.4-76.8s-2.7-52.5-7.3-76.8h70.5
			c8.6,24.1,13.7,49.8,13.7,76.8c0,27-5.1,52.7-13.7,76.8H402.2z"/>
	</g>
</g>
</svg>
