<svg xmlns="http://www.w3.org/2000/svg" xml:space="preserve" viewBox="0 0 16 16">
  <path d="M1.6 8.4v3.3c0 .5-.4.8-.8.8s-.8-.4-.8-.8V8.4c0-.4.4-.8.8-.8.5 0 .8.4.8.8m13.6-.7c-.4 0-.8.4-.8.8v3.3c0 .4.4.8.8.8s.8-.4.8-.8V8.5c0-.5-.4-.8-.8-.8m-4.1-3.1H8.8V3.5c.5-.3.8-.8.8-1.4C9.6 1.2 8.9.5 8 .5s-1.7.7-1.7 1.6c0 .6.3 1.1.8 1.4v1.1H4.8C3.5 4.6 2.4 5.7 2.4 7v6c0 1.3 1.1 2.4 2.4 2.4h6.3c1.3 0 2.4-1.1 2.4-2.4V7c.1-1.3-1-2.4-2.4-2.4M5.7 9.9c-.7 0-1.2-.6-1.2-1.3s.6-1.3 1.3-1.3c.6 0 1.2.6 1.2 1.3s-.6 1.3-1.3 1.3m4.6 0C9.6 9.9 9 9.3 9 8.6s.6-1.3 1.3-1.3 1.3.6 1.3 1.3c-.1.7-.6 1.3-1.3 1.3" style="fill:#1b1f23"/>
</svg>
