<svg xmlns="http://www.w3.org/2000/svg" xml:space="preserve" viewBox="0 0 16 16">
  <path d="M11.2 5.2c-.7 0-1.4.4-1.7 1h-.9c-1.1 0-2.1.4-2.8.9V5.7c0-1.6 1.3-2.8 2.8-2.8h.9c.3.6 1 1 1.7 1 1.1 0 1.9-.9 1.9-1.9 0-1.1-.9-1.9-1.9-1.9-.7 0-1.4.4-1.7 1h-.9C6 1 3.9 3.1 3.9 5.7v6.7c-.6.3-1 1-1 1.7 0 1.1.9 1.9 1.9 1.9 1.1 0 1.9-.9 1.9-1.9 0-.7-.4-1.4-1-1.7v-1.5C5.8 9.3 7 8 8.6 8h.9c.3.6 1 1 1.7 1 1.1 0 1.9-.9 1.9-1.9 0-1.1-.9-1.9-1.9-1.9m0-4.1c.4 0 .8.4.8.8s-.4.8-.8.8-.8-.4-.8-.8.3-.8.8-.8M4.8 14.9c-.4 0-.8-.4-.8-.8s.4-.8.8-.8.8.4.8.8-.3.8-.8.8m6.4-7c-.4 0-.8-.4-.8-.8s.4-.8.8-.8.8.4.8.8-.4.8-.8.8" style="fill:#1b1f23"/>
</svg>
