<svg xmlns="http://www.w3.org/2000/svg" xml:space="preserve" viewBox="0 0 16 16">
  <path d="M15.7 3.2c-.1-.1-.2-.1-.2-.1s-3 .2-4.5.2h-1v3c-.2 0-.3-.1-.5-.2V3.3c-.7 0-2.3-.1-2.3-.1s-3.6-.1-3.9-.1-.6-.1-1 0c-.3.1-.9.2-1.4.7-1.1 1-.9 2.7-.8 2.9 0 .3.1 1.1.8 1.9C2 10 4.5 10 4.5 10s.3.7.8 1.4c.6.9 1.3 1.5 1.9 1.6H12s.3 0 .7-.3c.4-.2.7-.6.7-.6s.3-.4.8-1.2c.2-.3.3-.5.4-.7 0 0 1.4-3 1.4-5.9-.1-.8-.3-1-.3-1.1M3.1 8.4c-.7-.2-1-.5-1-.5s-.5-.3-.7-1c-.4-1.1-.1-1.8-.1-1.8s.2-.6 1-.7c.4-.1.8-.1.8-.1s.2 1.5.4 2.4c.2.7.6 2 .6 2s-.6-.1-1-.3m9-.1c-.1.4-1.3 2.8-1.3 2.8s-.2.4-.5.4c-.2 0-.3-.1-.3-.1l-.2-.1L6.9 10s-.3-.2-.3-.4c0-.1.1-.4.1-.4l1.4-2.8s.1-.3.3-.3c0 0 .1 0 .1-.1.2 0 .5.1.5.1l.6.3h-.1c-.1.2-.3.4-.4.7-.1 0-.3.1-.4.2-.1.2-.1.4.1.5-.2.4-.4.9-.6 1.3-.2 0-.4.2-.5.4 0 .2.1.4.3.5s.4.1.6-.2c.1-.2.1-.4-.1-.6L9.1 8h.2c.1 0 .2-.1.2-.1 0 .1.1.1.2.2.1 0 .2.1.3.1l.1.1c.1.1.1.1.1.2.1.2-.1.4-.1.4l-.5 1c-.2 0-.4.1-.4.3-.1.2.1.4.2.5.2.1.4.1.6-.2.1-.2.1-.4-.1-.6.1-.1.1-.2.2-.3.1-.3.3-.8.3-.8 0-.1.2-.3.1-.5-.1-.3-.3-.4-.3-.4-.2-.2-.6-.3-.6-.3s0-.1-.1-.2c0-.1 0-.1-.1-.2.2-.2.3-.4.4-.7l1.9 1s.3.2.4.4 0 .3 0 .4" style="fill:#1b1f23"/>
</svg>
