<svg xmlns="http://www.w3.org/2000/svg" xml:space="preserve" viewBox="0 0 16 16">
  <path d="M13.8 7.2c-.3-.8-.9-1.5-1.5-2.1l-.5-.5c-.1-.1-.1 0-.2 0l-.2.7c-.1.4-.4.8-.8 1.3h-.2v-.1c.1-1.1-.3-2.3-1-3.6Q8.5 1.4 7 .5L6.2 0C6.1 0 6 0 6 .2V1c0 .6 0 1.1-.2 1.5-.2.6-.4 1.1-.8 1.5-.3.3-.5.6-.9.8-.7.6-1.3 1.4-1.7 2.2-.5.9-.7 1.8-.7 2.8 0 .8.2 1.7.5 2.4s.8 1.4 1.3 2c.6.6 1.3 1 2 1.3.8.3 1.7.5 2.5.5s1.7-.2 2.4-.5 1.4-.8 2-1.3c.6-.6 1-1.2 1.3-2s.5-1.6.5-2.4c.1-.9-.1-1.8-.4-2.6" style="fill:orange"/>
</svg>
