<svg xmlns="http://www.w3.org/2000/svg" xml:space="preserve" viewBox="0 0 16 16">
  <path d="M8 0C3.6 0 0 3.6 0 8s3.6 8 8 8 8-3.6 8-8-3.6-8-8-8M5.4 1.3c-.8.8-1.4 2.1-1.8 3.5h-2C2.3 3.2 3.7 2 5.4 1.3M.8 8c0-.8.2-1.6.4-2.4h2.2c-.1.8-.2 1.6-.2 2.4s.1 1.6.2 2.4H1.2C1 9.6.8 8.8.8 8m.8 3.2h2.1c.4 1.4 1 2.7 1.8 3.5-1.8-.7-3.2-1.9-3.9-3.5m6 4c-1.4-.3-2.6-1.8-3.2-4h3.2zm0-4.8H4.2C4.1 9.6 4 8.8 4 8s.1-1.6.2-2.4h3.4zm0-5.6H4.4C5 2.7 6.2 1.1 7.6.8zm6.8 0h-2.1c-.4-1.4-1-2.7-1.8-3.5 1.8.7 3.1 1.9 3.9 3.5m-6-4c1.4.3 2.6 1.8 3.2 4H8.4zm0 4.8h3.4c.1.8.2 1.6.2 2.4s-.1 1.6-.2 2.4H8.4zm0 9.6v-4h3.2c-.6 2.1-1.8 3.7-3.2 4m2.2-.5c.8-.8 1.4-2.1 1.8-3.5h2.1c-.9 1.6-2.2 2.8-3.9 3.5m2-4.3c.1-.8.2-1.6.2-2.4s-.1-1.6-.2-2.4h2.2c.2.8.4 1.6.4 2.4s-.2 1.6-.4 2.4z" style="fill:#1b1f23"/>
</svg>
